<?xml version="1.0" encoding="UTF-8"?>
<svg xmlns="http://www.w3.org/2000/svg" version="1.1" width="100" height="100" viewBox="0 0 100 100"><rect x="0" y="0" width="100" height="100" fill="#ffffff"/><g transform="scale(3.448)"><g transform="translate(0,0)"><path fill-rule="evenodd" d="M10 0L10 2L11 2L11 0ZM12 0L12 1L13 1L13 2L12 2L12 4L13 4L13 3L14 3L14 4L16 4L16 5L15 5L15 6L14 6L14 8L15 8L15 9L12 9L12 7L13 7L13 5L11 5L11 6L10 6L10 4L11 4L11 3L8 3L8 4L9 4L9 5L8 5L8 7L9 7L9 8L6 8L6 9L8 9L8 10L9 10L9 9L10 9L10 11L11 11L11 9L12 9L12 10L13 10L13 11L12 11L12 13L13 13L13 12L14 12L14 13L18 13L18 14L15 14L15 15L14 15L14 16L15 16L15 17L12 17L12 15L13 15L13 14L6 14L6 13L7 13L7 12L8 12L8 13L11 13L11 12L9 12L9 11L7 11L7 10L5 10L5 8L0 8L0 9L4 9L4 10L0 10L0 12L1 12L1 13L0 13L0 14L1 14L1 15L0 15L0 16L1 16L1 17L0 17L0 21L1 21L1 18L2 18L2 16L1 16L1 15L2 15L2 14L1 14L1 13L3 13L3 15L7 15L7 16L6 16L6 17L8 17L8 15L11 15L11 17L10 17L10 16L9 16L9 18L10 18L10 19L8 19L8 18L6 18L6 19L8 19L8 20L6 20L6 21L8 21L8 23L9 23L9 24L8 24L8 29L11 29L11 28L10 28L10 27L11 27L11 25L12 25L12 26L13 26L13 27L12 27L12 29L13 29L13 28L14 28L14 29L16 29L16 28L14 28L14 27L16 27L16 26L15 26L15 25L19 25L19 26L18 26L18 28L17 28L17 29L18 29L18 28L21 28L21 29L22 29L22 28L23 28L23 29L24 29L24 28L25 28L25 26L26 26L26 27L27 27L27 28L26 28L26 29L27 29L27 28L28 28L28 26L29 26L29 25L27 25L27 24L28 24L28 22L29 22L29 21L28 21L28 22L26 22L26 23L27 23L27 24L25 24L25 21L27 21L27 20L28 20L28 18L29 18L29 17L28 17L28 16L29 16L29 15L27 15L27 14L29 14L29 13L27 13L27 12L25 12L25 9L26 9L26 10L27 10L27 11L28 11L28 10L29 10L29 9L28 9L28 8L27 8L27 9L26 9L26 8L25 8L25 9L24 9L24 8L23 8L23 9L22 9L22 8L21 8L21 4L19 4L19 3L21 3L21 2L19 2L19 1L21 1L21 0L18 0L18 2L19 2L19 3L17 3L17 2L16 2L16 0L15 0L15 1L14 1L14 0ZM8 1L8 2L9 2L9 1ZM14 2L14 3L16 3L16 4L17 4L17 3L16 3L16 2ZM16 5L16 6L15 6L15 8L19 8L19 9L15 9L15 10L19 10L19 11L17 11L17 12L18 12L18 13L21 13L21 12L22 12L22 13L23 13L23 15L22 15L22 14L21 14L21 16L20 16L20 14L19 14L19 15L17 15L17 16L16 16L16 17L15 17L15 18L16 18L16 20L15 20L15 19L14 19L14 20L13 20L13 21L12 21L12 19L13 19L13 18L12 18L12 17L11 17L11 19L10 19L10 20L11 20L11 21L9 21L9 23L10 23L10 24L11 24L11 22L13 22L13 23L12 23L12 25L15 25L15 24L14 24L14 23L15 23L15 22L16 22L16 24L18 24L18 23L19 23L19 22L20 22L20 20L21 20L21 19L22 19L22 20L27 20L27 18L28 18L28 17L27 17L27 18L26 18L26 17L25 17L25 16L27 16L27 15L26 15L26 14L27 14L27 13L25 13L25 12L24 12L24 9L23 9L23 10L22 10L22 9L21 9L21 8L20 8L20 5ZM9 6L9 7L10 7L10 6ZM11 6L11 7L12 7L12 6ZM16 6L16 7L17 7L17 6ZM18 6L18 7L19 7L19 6ZM10 8L10 9L11 9L11 8ZM19 9L19 10L21 10L21 11L22 11L22 12L23 12L23 13L24 13L24 15L23 15L23 17L22 17L22 16L21 16L21 17L22 17L22 18L23 18L23 19L26 19L26 18L25 18L25 17L24 17L24 16L25 16L25 13L24 13L24 12L23 12L23 11L22 11L22 10L21 10L21 9ZM27 9L27 10L28 10L28 9ZM1 11L1 12L2 12L2 11ZM4 11L4 13L5 13L5 11ZM6 11L6 12L7 12L7 11ZM14 11L14 12L16 12L16 11ZM19 11L19 12L20 12L20 11ZM17 16L17 17L16 17L16 18L17 18L17 19L18 19L18 20L16 20L16 21L19 21L19 20L20 20L20 19L21 19L21 18L20 18L20 16L19 16L19 17L18 17L18 16ZM3 17L3 19L2 19L2 21L5 21L5 19L4 19L4 18L5 18L5 17ZM17 17L17 18L18 18L18 19L20 19L20 18L18 18L18 17ZM23 17L23 18L24 18L24 17ZM3 19L3 20L4 20L4 19ZM14 20L14 21L15 21L15 20ZM21 21L21 24L24 24L24 21ZM17 22L17 23L18 23L18 22ZM22 22L22 23L23 23L23 22ZM19 24L19 25L20 25L20 26L19 26L19 27L20 27L20 26L21 26L21 27L22 27L22 26L23 26L23 27L24 27L24 26L25 26L25 25L24 25L24 26L23 26L23 25L22 25L22 26L21 26L21 25L20 25L20 24ZM9 25L9 26L10 26L10 25ZM26 25L26 26L27 26L27 25ZM0 0L0 7L7 7L7 0ZM1 1L1 6L6 6L6 1ZM2 2L2 5L5 5L5 2ZM22 0L22 7L29 7L29 0ZM23 1L23 6L28 6L28 1ZM24 2L24 5L27 5L27 2ZM0 22L0 29L7 29L7 22ZM1 23L1 28L6 28L6 23ZM2 24L2 27L5 27L5 24Z" fill="#000000"/></g></g></svg>
