<?xml version="1.0" encoding="UTF-8"?>
<svg xmlns="http://www.w3.org/2000/svg" version="1.1" width="100" height="100" viewBox="0 0 100 100"><rect x="0" y="0" width="100" height="100" fill="#ffffff"/><g transform="scale(3.448)"><g transform="translate(0,0)"><path fill-rule="evenodd" d="M10 0L10 2L11 2L11 0ZM12 0L12 1L13 1L13 2L12 2L12 4L13 4L13 3L14 3L14 4L17 4L17 5L21 5L21 4L19 4L19 3L20 3L20 2L18 2L18 1L21 1L21 0L18 0L18 1L17 1L17 2L18 2L18 3L14 3L14 2L16 2L16 0L15 0L15 1L14 1L14 0ZM8 1L8 2L9 2L9 1ZM8 3L8 4L9 4L9 5L8 5L8 7L9 7L9 8L6 8L6 9L5 9L5 8L0 8L0 12L1 12L1 10L4 10L4 11L7 11L7 12L5 12L5 13L4 13L4 12L3 12L3 11L2 11L2 13L3 13L3 15L4 15L4 16L3 16L3 17L2 17L2 15L0 15L0 21L1 21L1 17L2 17L2 19L3 19L3 20L4 20L4 17L5 17L5 18L6 18L6 19L7 19L7 18L6 18L6 17L10 17L10 19L11 19L11 17L12 17L12 18L13 18L13 19L12 19L12 21L13 21L13 20L14 20L14 21L15 21L15 20L16 20L16 21L18 21L18 22L15 22L15 23L14 23L14 24L15 24L15 25L12 25L12 23L13 23L13 22L10 22L10 20L6 20L6 21L8 21L8 23L9 23L9 24L8 24L8 29L9 29L9 24L10 24L10 28L11 28L11 25L12 25L12 26L13 26L13 27L12 27L12 29L13 29L13 28L14 28L14 29L15 29L15 28L16 28L16 29L20 29L20 28L21 28L21 29L22 29L22 28L21 28L21 27L23 27L23 29L24 29L24 28L25 28L25 26L26 26L26 27L27 27L27 28L26 28L26 29L27 29L27 28L28 28L28 26L29 26L29 25L27 25L27 24L28 24L28 23L27 23L27 24L25 24L25 23L26 23L26 22L25 22L25 21L27 21L27 22L29 22L29 21L28 21L28 20L25 20L25 18L26 18L26 19L28 19L28 18L29 18L29 17L28 17L28 16L29 16L29 15L28 15L28 16L25 16L25 14L26 14L26 15L27 15L27 14L29 14L29 13L28 13L28 12L29 12L29 11L28 11L28 10L29 10L29 9L28 9L28 8L27 8L27 9L28 9L28 10L27 10L27 11L28 11L28 12L26 12L26 11L24 11L24 12L26 12L26 13L22 13L22 12L23 12L23 11L22 11L22 10L23 10L23 9L24 9L24 10L26 10L26 8L25 8L25 9L24 9L24 8L23 8L23 9L22 9L22 8L21 8L21 6L20 6L20 7L19 7L19 6L18 6L18 7L19 7L19 8L17 8L17 6L16 6L16 5L15 5L15 6L14 6L14 8L15 8L15 9L12 9L12 7L13 7L13 5L11 5L11 6L10 6L10 4L11 4L11 3ZM9 6L9 7L10 7L10 6ZM11 6L11 7L12 7L12 6ZM15 6L15 8L16 8L16 6ZM10 8L10 9L9 9L9 10L7 10L7 9L6 9L6 10L7 10L7 11L9 11L9 12L11 12L11 13L8 13L8 12L7 12L7 13L5 13L5 14L4 14L4 15L5 15L5 17L6 17L6 16L10 16L10 17L11 17L11 14L13 14L13 15L12 15L12 17L15 17L15 18L16 18L16 20L18 20L18 21L20 21L20 20L21 20L21 19L22 19L22 20L23 20L23 19L24 19L24 17L25 17L25 16L24 16L24 15L22 15L22 14L21 14L21 13L20 13L20 14L19 14L19 13L18 13L18 14L17 14L17 13L14 13L14 12L15 12L15 11L14 11L14 12L13 12L13 13L12 13L12 11L13 11L13 10L12 10L12 9L11 9L11 8ZM19 8L19 9L15 9L15 10L18 10L18 11L17 11L17 12L21 12L21 11L20 11L20 10L22 10L22 9L20 9L20 8ZM4 9L4 10L5 10L5 9ZM10 9L10 11L11 11L11 9ZM19 9L19 10L20 10L20 9ZM0 13L0 14L1 14L1 13ZM26 13L26 14L27 14L27 13ZM5 14L5 15L7 15L7 14ZM8 14L8 15L9 15L9 14ZM15 14L15 15L14 15L14 16L15 16L15 17L18 17L18 18L20 18L20 16L21 16L21 17L22 17L22 18L23 18L23 17L24 17L24 16L23 16L23 17L22 17L22 16L21 16L21 14L20 14L20 16L19 16L19 17L18 17L18 16L16 16L16 15L17 15L17 14ZM18 14L18 15L19 15L19 14ZM26 17L26 18L28 18L28 17ZM8 18L8 19L9 19L9 18ZM14 19L14 20L15 20L15 19ZM19 19L19 20L20 20L20 19ZM21 21L21 24L24 24L24 21ZM22 22L22 23L23 23L23 22ZM16 23L16 24L18 24L18 23ZM19 23L19 25L15 25L15 26L16 26L16 28L18 28L18 27L19 27L19 28L20 28L20 27L21 27L21 26L25 26L25 25L20 25L20 23ZM26 25L26 26L27 26L27 25ZM17 26L17 27L18 27L18 26ZM19 26L19 27L20 27L20 26ZM14 27L14 28L15 28L15 27ZM0 0L0 7L7 7L7 0ZM1 1L1 6L6 6L6 1ZM2 2L2 5L5 5L5 2ZM22 0L22 7L29 7L29 0ZM23 1L23 6L28 6L28 1ZM24 2L24 5L27 5L27 2ZM0 22L0 29L7 29L7 22ZM1 23L1 28L6 28L6 23ZM2 24L2 27L5 27L5 24Z" fill="#000000"/></g></g></svg>
