<?xml version="1.0" encoding="UTF-8"?>
<svg xmlns="http://www.w3.org/2000/svg" version="1.1" width="100" height="100" viewBox="0 0 100 100"><rect x="0" y="0" width="100" height="100" fill="#ffffff"/><g transform="scale(3.448)"><g transform="translate(0,0)"><path fill-rule="evenodd" d="M8 0L8 1L9 1L9 2L8 2L8 5L9 5L9 4L11 4L11 5L10 5L10 10L9 10L9 8L8 8L8 9L7 9L7 8L6 8L6 9L4 9L4 8L0 8L0 11L1 11L1 13L0 13L0 14L2 14L2 15L0 15L0 17L1 17L1 16L2 16L2 15L3 15L3 17L2 17L2 18L3 18L3 19L4 19L4 18L3 18L3 17L4 17L4 12L5 12L5 11L7 11L7 12L6 12L6 13L5 13L5 14L6 14L6 15L5 15L5 16L6 16L6 17L5 17L5 18L6 18L6 19L5 19L5 20L1 20L1 21L5 21L5 20L6 20L6 21L8 21L8 22L9 22L9 25L8 25L8 29L12 29L12 28L14 28L14 27L15 27L15 29L17 29L17 28L16 28L16 27L17 27L17 25L18 25L18 26L20 26L20 25L23 25L23 28L24 28L24 29L25 29L25 27L24 27L24 26L25 26L25 23L26 23L26 22L25 22L25 20L21 20L21 19L19 19L19 20L18 20L18 18L19 18L19 17L21 17L21 18L22 18L22 17L21 17L21 15L22 15L22 14L24 14L24 17L25 17L25 18L24 18L24 19L26 19L26 21L28 21L28 22L29 22L29 20L27 20L27 19L28 19L28 17L27 17L27 19L26 19L26 17L25 17L25 16L26 16L26 15L25 15L25 14L24 14L24 12L23 12L23 13L22 13L22 12L21 12L21 13L22 13L22 14L20 14L20 13L19 13L19 10L20 10L20 11L21 11L21 10L23 10L23 11L25 11L25 13L26 13L26 14L28 14L28 15L27 15L27 16L28 16L28 15L29 15L29 11L28 11L28 12L26 12L26 10L25 10L25 9L27 9L27 8L24 8L24 9L22 9L22 8L19 8L19 6L20 6L20 7L21 7L21 3L20 3L20 2L21 2L21 1L20 1L20 0L19 0L19 1L16 1L16 0L15 0L15 1L16 1L16 4L15 4L15 3L14 3L14 5L13 5L13 3L12 3L12 4L11 4L11 2L14 2L14 0L12 0L12 1L11 1L11 0L10 0L10 1L9 1L9 0ZM19 1L19 2L20 2L20 1ZM17 2L17 3L18 3L18 2ZM16 4L16 5L14 5L14 6L13 6L13 5L12 5L12 6L11 6L11 8L12 8L12 6L13 6L13 8L14 8L14 9L15 9L15 10L14 10L14 11L11 11L11 13L9 13L9 14L8 14L8 16L7 16L7 15L6 15L6 16L7 16L7 17L6 17L6 18L7 18L7 19L6 19L6 20L11 20L11 21L10 21L10 22L11 22L11 23L10 23L10 25L9 25L9 27L11 27L11 28L12 28L12 26L13 26L13 27L14 27L14 26L15 26L15 27L16 27L16 26L15 26L15 24L12 24L12 26L11 26L11 23L14 23L14 22L15 22L15 23L16 23L16 25L17 25L17 24L19 24L19 25L20 25L20 24L19 24L19 23L18 23L18 21L17 21L17 22L16 22L16 19L17 19L17 18L18 18L18 17L19 17L19 16L20 16L20 15L19 15L19 14L18 14L18 15L17 15L17 16L15 16L15 17L16 17L16 19L15 19L15 21L13 21L13 18L14 18L14 15L16 15L16 14L17 14L17 13L16 13L16 14L14 14L14 12L15 12L15 11L16 11L16 12L18 12L18 10L19 10L19 8L18 8L18 9L17 9L17 11L16 11L16 8L17 8L17 7L18 7L18 5L19 5L19 4ZM8 6L8 7L9 7L9 6ZM14 6L14 7L15 7L15 8L16 8L16 7L17 7L17 6L16 6L16 7L15 7L15 6ZM28 8L28 10L29 10L29 8ZM1 9L1 10L3 10L3 11L4 11L4 10L3 10L3 9ZM6 9L6 10L7 10L7 11L8 11L8 10L7 10L7 9ZM11 9L11 10L12 10L12 9ZM20 9L20 10L21 10L21 9ZM2 12L2 13L3 13L3 12ZM7 12L7 13L6 13L6 14L7 14L7 13L8 13L8 12ZM12 12L12 13L11 13L11 15L10 15L10 14L9 14L9 15L10 15L10 16L9 16L9 18L8 18L8 19L10 19L10 16L12 16L12 17L13 17L13 16L12 16L12 14L13 14L13 15L14 15L14 14L13 14L13 12ZM18 15L18 16L19 16L19 15ZM0 18L0 19L1 19L1 18ZM11 19L11 20L12 20L12 19ZM21 21L21 24L24 24L24 21ZM22 22L22 23L23 23L23 22ZM28 23L28 24L29 24L29 23ZM26 24L26 26L27 26L27 24ZM13 25L13 26L14 26L14 25ZM28 25L28 27L27 27L27 29L28 29L28 27L29 27L29 25ZM21 26L21 27L18 27L18 28L20 28L20 29L22 29L22 26ZM0 0L0 7L7 7L7 0ZM1 1L1 6L6 6L6 1ZM2 2L2 5L5 5L5 2ZM22 0L22 7L29 7L29 0ZM23 1L23 6L28 6L28 1ZM24 2L24 5L27 5L27 2ZM0 22L0 29L7 29L7 22ZM1 23L1 28L6 28L6 23ZM2 24L2 27L5 27L5 24Z" fill="#000000"/></g></g></svg>
