<?xml version="1.0" encoding="UTF-8"?>
<svg xmlns="http://www.w3.org/2000/svg" version="1.1" width="100" height="100" viewBox="0 0 100 100"><rect x="0" y="0" width="100" height="100" fill="#ffffff"/><g transform="scale(3.448)"><g transform="translate(0,0)"><path fill-rule="evenodd" d="M8 0L8 1L9 1L9 2L8 2L8 5L9 5L9 4L11 4L11 5L10 5L10 10L9 10L9 8L8 8L8 10L9 10L9 11L7 11L7 10L6 10L6 9L7 9L7 8L6 8L6 9L4 9L4 8L0 8L0 11L1 11L1 13L0 13L0 16L1 16L1 17L4 17L4 18L5 18L5 17L8 17L8 19L7 19L7 18L6 18L6 19L5 19L5 20L4 20L4 19L3 19L3 18L2 18L2 19L3 19L3 20L4 20L4 21L5 21L5 20L6 20L6 21L8 21L8 22L9 22L9 25L8 25L8 29L9 29L9 28L10 28L10 29L12 29L12 28L14 28L14 27L15 27L15 26L16 26L16 27L17 27L17 26L16 26L16 25L18 25L18 26L19 26L19 28L20 28L20 29L21 29L21 27L22 27L22 26L21 26L21 27L20 27L20 26L19 26L19 24L20 24L20 25L23 25L23 28L22 28L22 29L23 29L23 28L24 28L24 29L25 29L25 27L24 27L24 26L25 26L25 25L26 25L26 27L27 27L27 29L28 29L28 27L29 27L29 25L28 25L28 27L27 27L27 24L26 24L26 23L25 23L25 22L26 22L26 21L27 21L27 20L28 20L28 22L29 22L29 19L28 19L28 17L27 17L27 19L26 19L26 18L25 18L25 20L24 20L24 18L23 18L23 20L21 20L21 18L22 18L22 17L21 17L21 15L22 15L22 14L23 14L23 15L24 15L24 12L23 12L23 11L24 11L24 10L26 10L26 9L27 9L27 8L24 8L24 9L22 9L22 8L21 8L21 3L20 3L20 4L19 4L19 2L18 2L18 1L17 1L17 2L18 2L18 3L17 3L17 4L16 4L16 3L14 3L14 5L13 5L13 3L12 3L12 4L11 4L11 2L14 2L14 0L12 0L12 1L11 1L11 0L10 0L10 1L9 1L9 0ZM15 0L15 1L16 1L16 0ZM19 0L19 1L20 1L20 2L21 2L21 1L20 1L20 0ZM17 4L17 5L14 5L14 6L13 6L13 5L12 5L12 6L11 6L11 8L12 8L12 6L13 6L13 8L14 8L14 9L15 9L15 10L14 10L14 11L11 11L11 13L10 13L10 14L11 14L11 13L12 13L12 12L13 12L13 14L12 14L12 16L11 16L11 15L10 15L10 16L9 16L9 18L10 18L10 17L11 17L11 19L12 19L12 20L10 20L10 19L9 19L9 20L10 20L10 22L11 22L11 23L14 23L14 22L15 22L15 24L12 24L12 26L11 26L11 24L10 24L10 25L9 25L9 27L11 27L11 28L12 28L12 26L13 26L13 27L14 27L14 26L15 26L15 24L16 24L16 23L17 23L17 24L19 24L19 23L18 23L18 21L17 21L17 19L15 19L15 21L13 21L13 18L14 18L14 15L15 15L15 17L16 17L16 18L18 18L18 19L19 19L19 20L20 20L20 18L21 18L21 17L19 17L19 16L20 16L20 15L19 15L19 12L18 12L18 11L17 11L17 10L18 10L18 9L17 9L17 10L16 10L16 8L17 8L17 7L18 7L18 5L19 5L19 4ZM8 6L8 7L9 7L9 6ZM14 6L14 7L15 7L15 8L16 8L16 7L17 7L17 6L16 6L16 7L15 7L15 6ZM19 6L19 8L20 8L20 9L21 9L21 8L20 8L20 6ZM28 8L28 10L29 10L29 8ZM1 9L1 10L2 10L2 11L3 11L3 12L7 12L7 11L5 11L5 10L3 10L3 9ZM11 9L11 10L12 10L12 9ZM19 10L19 11L20 11L20 12L21 12L21 11L20 11L20 10ZM22 10L22 11L23 11L23 10ZM16 11L16 12L14 12L14 14L13 14L13 15L14 15L14 14L16 14L16 16L17 16L17 15L18 15L18 16L19 16L19 15L18 15L18 12L17 12L17 11ZM25 11L25 13L26 13L26 14L25 14L25 15L27 15L27 16L29 16L29 13L28 13L28 11L27 11L27 12L26 12L26 11ZM22 12L22 13L21 13L21 14L22 14L22 13L23 13L23 12ZM4 13L4 14L3 14L3 15L4 15L4 16L5 16L5 15L6 15L6 16L7 16L7 15L6 15L6 14L8 14L8 15L9 15L9 13L6 13L6 14L5 14L5 13ZM16 13L16 14L17 14L17 13ZM1 14L1 15L2 15L2 14ZM27 14L27 15L28 15L28 14ZM12 16L12 17L13 17L13 16ZM24 16L24 17L26 17L26 16ZM18 17L18 18L19 18L19 17ZM0 18L0 19L1 19L1 18ZM6 19L6 20L7 20L7 19ZM1 20L1 21L2 21L2 20ZM21 21L21 24L24 24L24 21ZM22 22L22 23L23 23L23 22ZM28 23L28 24L29 24L29 23ZM13 25L13 26L14 26L14 25ZM16 28L16 29L17 29L17 28ZM0 0L0 7L7 7L7 0ZM1 1L1 6L6 6L6 1ZM2 2L2 5L5 5L5 2ZM22 0L22 7L29 7L29 0ZM23 1L23 6L28 6L28 1ZM24 2L24 5L27 5L27 2ZM0 22L0 29L7 29L7 22ZM1 23L1 28L6 28L6 23ZM2 24L2 27L5 27L5 24Z" fill="#000000"/></g></g></svg>
