<?xml version="1.0" encoding="UTF-8"?>
<svg xmlns="http://www.w3.org/2000/svg" version="1.1" width="100" height="100" viewBox="0 0 100 100"><rect x="0" y="0" width="100" height="100" fill="#ffffff"/><g transform="scale(3.448)"><g transform="translate(0,0)"><path fill-rule="evenodd" d="M10 0L10 2L11 2L11 0ZM12 0L12 1L13 1L13 2L12 2L12 4L13 4L13 3L14 3L14 4L17 4L17 5L15 5L15 6L14 6L14 8L15 8L15 9L12 9L12 7L13 7L13 5L11 5L11 6L10 6L10 4L11 4L11 3L8 3L8 4L9 4L9 5L8 5L8 7L9 7L9 8L6 8L6 9L8 9L8 10L9 10L9 9L10 9L10 11L11 11L11 9L12 9L12 10L13 10L13 11L12 11L12 13L13 13L13 12L14 12L14 13L15 13L15 12L16 12L16 13L19 13L19 14L15 14L15 15L14 15L14 16L15 16L15 17L12 17L12 15L13 15L13 14L10 14L10 13L11 13L11 12L9 12L9 11L7 11L7 10L5 10L5 11L7 11L7 12L6 12L6 13L4 13L4 14L6 14L6 15L5 15L5 16L4 16L4 15L3 15L3 12L4 12L4 9L5 9L5 8L0 8L0 9L1 9L1 10L0 10L0 13L2 13L2 16L3 16L3 17L1 17L1 15L0 15L0 21L1 21L1 18L3 18L3 17L5 17L5 21L7 21L7 20L6 20L6 19L7 19L7 18L8 18L8 19L9 19L9 20L10 20L10 18L11 18L11 17L12 17L12 18L13 18L13 19L12 19L12 21L13 21L13 20L14 20L14 21L16 21L16 22L15 22L15 23L14 23L14 24L15 24L15 25L12 25L12 23L13 23L13 22L11 22L11 24L10 24L10 25L9 25L9 24L8 24L8 29L9 29L9 27L10 27L10 29L11 29L11 27L10 27L10 26L11 26L11 25L12 25L12 26L13 26L13 27L12 27L12 29L13 29L13 28L14 28L14 29L19 29L19 28L21 28L21 29L24 29L24 28L25 28L25 26L21 26L21 27L20 27L20 25L26 25L26 26L27 26L27 28L26 28L26 29L27 29L27 28L28 28L28 26L29 26L29 25L27 25L27 24L28 24L28 22L29 22L29 21L28 21L28 20L29 20L29 19L28 19L28 18L29 18L29 17L28 17L28 18L27 18L27 16L25 16L25 14L26 14L26 15L27 15L27 14L29 14L29 13L28 13L28 12L29 12L29 11L28 11L28 10L29 10L29 9L28 9L28 8L27 8L27 9L26 9L26 8L25 8L25 9L24 9L24 8L23 8L23 9L22 9L22 8L20 8L20 7L21 7L21 5L20 5L20 4L21 4L21 3L20 3L20 2L21 2L21 0L18 0L18 1L16 1L16 0L15 0L15 1L14 1L14 0ZM8 1L8 2L9 2L9 1ZM18 1L18 2L17 2L17 3L18 3L18 2L20 2L20 1ZM14 2L14 3L16 3L16 2ZM19 3L19 4L20 4L20 3ZM17 5L17 7L16 7L16 6L15 6L15 7L16 7L16 8L18 8L18 9L15 9L15 10L17 10L17 11L16 11L16 12L21 12L21 11L20 11L20 10L22 10L22 13L23 13L23 14L24 14L24 13L26 13L26 14L27 14L27 13L26 13L26 12L28 12L28 11L27 11L27 10L28 10L28 9L27 9L27 10L26 10L26 9L25 9L25 10L26 10L26 12L24 12L24 13L23 13L23 10L24 10L24 9L23 9L23 10L22 10L22 9L20 9L20 8L19 8L19 7L20 7L20 5ZM9 6L9 7L10 7L10 6ZM11 6L11 7L12 7L12 6ZM18 6L18 7L19 7L19 6ZM10 8L10 9L11 9L11 8ZM2 9L2 10L3 10L3 9ZM18 9L18 10L20 10L20 9ZM1 11L1 12L2 12L2 11ZM14 11L14 12L15 12L15 11ZM6 13L6 14L8 14L8 15L10 15L10 14L9 14L9 13ZM20 13L20 14L19 14L19 15L15 15L15 16L20 16L20 18L19 18L19 17L18 17L18 18L17 18L17 17L15 17L15 18L16 18L16 19L14 19L14 20L16 20L16 21L17 21L17 20L19 20L19 21L18 21L18 22L16 22L16 23L15 23L15 24L16 24L16 25L15 25L15 26L16 26L16 25L17 25L17 26L19 26L19 25L20 25L20 23L19 23L19 25L17 25L17 24L18 24L18 22L19 22L19 21L20 21L20 18L21 18L21 19L22 19L22 20L24 20L24 19L25 19L25 20L28 20L28 19L27 19L27 18L26 18L26 17L25 17L25 16L23 16L23 15L22 15L22 14L21 14L21 13ZM20 14L20 16L21 16L21 17L22 17L22 18L25 18L25 17L22 17L22 16L21 16L21 14ZM6 15L6 16L5 16L5 17L6 17L6 18L7 18L7 17L6 17L6 16L7 16L7 15ZM28 15L28 16L29 16L29 15ZM8 16L8 17L9 17L9 18L10 18L10 17L11 17L11 16L10 16L10 17L9 17L9 16ZM18 18L18 19L19 19L19 18ZM2 19L2 21L3 21L3 19ZM16 19L16 20L17 20L17 19ZM8 21L8 23L9 23L9 22L10 22L10 21ZM21 21L21 24L24 24L24 21ZM26 21L26 22L25 22L25 24L27 24L27 23L26 23L26 22L28 22L28 21ZM22 22L22 23L23 23L23 22ZM14 27L14 28L18 28L18 27ZM22 27L22 28L23 28L23 27ZM0 0L0 7L7 7L7 0ZM1 1L1 6L6 6L6 1ZM2 2L2 5L5 5L5 2ZM22 0L22 7L29 7L29 0ZM23 1L23 6L28 6L28 1ZM24 2L24 5L27 5L27 2ZM0 22L0 29L7 29L7 22ZM1 23L1 28L6 28L6 23ZM2 24L2 27L5 27L5 24Z" fill="#000000"/></g></g></svg>
