<?xml version="1.0" encoding="UTF-8"?>
<svg xmlns="http://www.w3.org/2000/svg" version="1.1" width="100" height="100" viewBox="0 0 100 100"><rect x="0" y="0" width="100" height="100" fill="#ffffff"/><g transform="scale(3.448)"><g transform="translate(0,0)"><path fill-rule="evenodd" d="M8 0L8 4L10 4L10 3L11 3L11 4L12 4L12 2L11 2L11 0ZM12 0L12 1L13 1L13 0ZM14 0L14 1L15 1L15 0ZM18 0L18 1L17 1L17 2L15 2L15 3L14 3L14 2L13 2L13 3L14 3L14 4L13 4L13 5L11 5L11 6L10 6L10 7L9 7L9 5L8 5L8 7L9 7L9 8L10 8L10 7L11 7L11 6L12 6L12 8L11 8L11 9L9 9L9 10L8 10L8 9L7 9L7 8L4 8L4 10L2 10L2 8L0 8L0 9L1 9L1 10L2 10L2 11L0 11L0 12L1 12L1 13L0 13L0 14L1 14L1 13L3 13L3 11L4 11L4 12L6 12L6 13L4 13L4 15L3 15L3 16L4 16L4 17L5 17L5 20L4 20L4 21L5 21L5 20L6 20L6 21L8 21L8 22L11 22L11 21L8 21L8 19L7 19L7 18L9 18L9 17L10 17L10 18L11 18L11 19L10 19L10 20L12 20L12 21L13 21L13 22L15 22L15 23L14 23L14 24L13 24L13 23L12 23L12 24L11 24L11 23L10 23L10 24L9 24L9 23L8 23L8 25L10 25L10 26L9 26L9 27L8 27L8 29L11 29L11 28L12 28L12 29L14 29L14 27L17 27L17 29L18 29L18 28L19 28L19 29L24 29L24 28L23 28L23 27L24 27L24 25L25 25L25 26L26 26L26 27L27 27L27 29L28 29L28 28L29 28L29 25L28 25L28 24L29 24L29 21L28 21L28 20L29 20L29 17L26 17L26 15L25 15L25 17L21 17L21 13L20 13L20 18L22 18L22 19L21 19L21 20L20 20L20 22L18 22L18 23L17 23L17 21L19 21L19 17L18 17L18 16L19 16L19 13L18 13L18 12L19 12L19 11L18 11L18 9L21 9L21 11L22 11L22 12L23 12L23 13L22 13L22 14L23 14L23 13L24 13L24 14L26 14L26 13L24 13L24 11L25 11L25 10L26 10L26 11L27 11L27 9L28 9L28 12L27 12L27 16L29 16L29 13L28 13L28 12L29 12L29 8L25 8L25 9L24 9L24 8L23 8L23 9L21 9L21 3L19 3L19 2L21 2L21 1L19 1L19 0ZM9 2L9 3L10 3L10 2ZM16 3L16 5L15 5L15 7L16 7L16 5L17 5L17 7L18 7L18 6L19 6L19 7L20 7L20 6L19 6L19 5L20 5L20 4L19 4L19 3ZM17 4L17 5L19 5L19 4ZM13 6L13 8L12 8L12 9L11 9L11 10L9 10L9 11L8 11L8 10L7 10L7 9L5 9L5 10L7 10L7 11L6 11L6 12L7 12L7 13L6 13L6 14L5 14L5 15L4 15L4 16L5 16L5 15L6 15L6 16L7 16L7 15L9 15L9 16L10 16L10 15L9 15L9 14L7 14L7 13L10 13L10 14L11 14L11 16L12 16L12 17L11 17L11 18L12 18L12 17L13 17L13 18L15 18L15 17L16 17L16 19L17 19L17 18L18 18L18 17L16 17L16 16L15 16L15 17L13 17L13 16L14 16L14 15L15 15L15 14L13 14L13 13L12 13L12 12L13 12L13 11L12 11L12 12L11 12L11 13L10 13L10 11L11 11L11 10L12 10L12 9L13 9L13 10L15 10L15 9L16 9L16 10L17 10L17 9L16 9L16 8L15 8L15 9L13 9L13 8L14 8L14 6ZM23 9L23 10L22 10L22 11L24 11L24 9ZM7 11L7 12L8 12L8 11ZM14 11L14 13L17 13L17 14L18 14L18 13L17 13L17 11L16 11L16 12L15 12L15 11ZM6 14L6 15L7 15L7 14ZM0 15L0 16L1 16L1 17L0 17L0 18L2 18L2 20L0 20L0 21L3 21L3 19L4 19L4 18L3 18L3 17L2 17L2 15ZM12 15L12 16L13 16L13 15ZM22 15L22 16L23 16L23 15ZM6 17L6 18L7 18L7 17ZM25 17L25 18L24 18L24 19L23 19L23 20L25 20L25 18L26 18L26 21L27 21L27 18L26 18L26 17ZM6 19L6 20L7 20L7 19ZM12 19L12 20L13 20L13 19ZM14 19L14 21L17 21L17 20L15 20L15 19ZM21 21L21 24L24 24L24 21ZM22 22L22 23L23 23L23 22ZM18 23L18 25L16 25L16 26L18 26L18 27L20 27L20 25L19 25L19 24L20 24L20 23ZM25 23L25 25L27 25L27 26L28 26L28 25L27 25L27 23ZM12 24L12 25L11 25L11 26L12 26L12 25L13 25L13 26L15 26L15 25L13 25L13 24ZM18 25L18 26L19 26L19 25ZM21 25L21 28L22 28L22 27L23 27L23 25ZM10 27L10 28L11 28L11 27ZM12 27L12 28L13 28L13 27ZM25 28L25 29L26 29L26 28ZM0 0L0 7L7 7L7 0ZM1 1L1 6L6 6L6 1ZM2 2L2 5L5 5L5 2ZM22 0L22 7L29 7L29 0ZM23 1L23 6L28 6L28 1ZM24 2L24 5L27 5L27 2ZM0 22L0 29L7 29L7 22ZM1 23L1 28L6 28L6 23ZM2 24L2 27L5 27L5 24Z" fill="#000000"/></g></g></svg>
