<?xml version="1.0" encoding="UTF-8"?>
<svg xmlns="http://www.w3.org/2000/svg" version="1.1" width="100" height="100" viewBox="0 0 100 100"><rect x="0" y="0" width="100" height="100" fill="#ffffff"/><g transform="scale(3.448)"><g transform="translate(0,0)"><path fill-rule="evenodd" d="M10 0L10 2L11 2L11 0ZM12 0L12 1L13 1L13 2L12 2L12 4L13 4L13 3L14 3L14 4L17 4L17 5L20 5L20 7L21 7L21 5L20 5L20 4L21 4L21 3L20 3L20 4L19 4L19 3L14 3L14 2L16 2L16 0L15 0L15 1L14 1L14 0ZM18 0L18 2L19 2L19 1L20 1L20 2L21 2L21 0ZM8 1L8 2L9 2L9 1ZM8 3L8 4L9 4L9 5L8 5L8 7L9 7L9 8L6 8L6 9L5 9L5 8L0 8L0 10L1 10L1 9L3 9L3 10L4 10L4 9L5 9L5 10L6 10L6 11L7 11L7 12L6 12L6 13L8 13L8 18L6 18L6 17L7 17L7 16L6 16L6 15L7 15L7 14L5 14L5 16L4 16L4 12L5 12L5 11L1 11L1 14L2 14L2 13L3 13L3 16L2 16L2 15L1 15L1 16L0 16L0 21L1 21L1 17L3 17L3 18L2 18L2 19L3 19L3 20L2 20L2 21L4 21L4 20L6 20L6 21L7 21L7 20L6 20L6 19L9 19L9 20L8 20L8 23L10 23L10 24L8 24L8 29L10 29L10 28L9 28L9 27L10 27L10 26L11 26L11 25L12 25L12 26L13 26L13 27L12 27L12 29L13 29L13 28L14 28L14 29L16 29L16 28L17 28L17 29L18 29L18 28L21 28L21 29L22 29L22 28L23 28L23 29L24 29L24 28L25 28L25 27L26 27L26 25L27 25L27 28L26 28L26 29L27 29L27 28L28 28L28 26L29 26L29 25L27 25L27 24L28 24L28 22L29 22L29 21L28 21L28 22L27 22L27 20L29 20L29 19L28 19L28 18L29 18L29 17L28 17L28 16L26 16L26 13L28 13L28 14L27 14L27 15L28 15L28 14L29 14L29 13L28 13L28 12L26 12L26 11L28 11L28 10L29 10L29 9L28 9L28 8L27 8L27 9L28 9L28 10L26 10L26 11L25 11L25 9L26 9L26 8L25 8L25 9L24 9L24 8L23 8L23 9L22 9L22 8L21 8L21 9L19 9L19 8L17 8L17 6L16 6L16 5L15 5L15 6L14 6L14 8L15 8L15 9L12 9L12 7L13 7L13 5L11 5L11 6L10 6L10 4L11 4L11 3ZM9 6L9 7L10 7L10 6ZM11 6L11 7L12 7L12 6ZM15 6L15 8L16 8L16 6ZM18 6L18 7L19 7L19 6ZM10 8L10 9L9 9L9 11L8 11L8 12L11 12L11 13L9 13L9 14L10 14L10 15L11 15L11 14L13 14L13 15L12 15L12 17L11 17L11 18L10 18L10 16L9 16L9 18L10 18L10 20L9 20L9 21L10 21L10 22L13 22L13 23L12 23L12 25L15 25L15 26L16 26L16 27L17 27L17 28L18 28L18 27L19 27L19 25L20 25L20 24L19 24L19 23L15 23L15 22L18 22L18 21L19 21L19 22L20 22L20 18L21 18L21 19L22 19L22 20L23 20L23 19L25 19L25 20L27 20L27 18L28 18L28 17L26 17L26 16L25 16L25 15L24 15L24 13L26 13L26 12L25 12L25 11L24 11L24 9L23 9L23 11L22 11L22 13L23 13L23 15L22 15L22 14L21 14L21 16L20 16L20 14L19 14L19 13L21 13L21 10L22 10L22 9L21 9L21 10L19 10L19 9L15 9L15 10L17 10L17 12L16 12L16 13L14 13L14 12L15 12L15 11L14 11L14 12L13 12L13 13L12 13L12 11L13 11L13 10L12 10L12 9L11 9L11 8ZM6 9L6 10L7 10L7 9ZM10 9L10 11L11 11L11 9ZM18 10L18 12L17 12L17 13L16 13L16 14L15 14L15 15L14 15L14 16L15 16L15 17L12 17L12 18L13 18L13 19L12 19L12 21L13 21L13 20L14 20L14 21L18 21L18 20L19 20L19 19L18 19L18 20L16 20L16 18L15 18L15 17L18 17L18 18L20 18L20 16L19 16L19 14L17 14L17 13L19 13L19 12L20 12L20 11L19 11L19 10ZM23 12L23 13L24 13L24 12ZM15 15L15 16L18 16L18 17L19 17L19 16L18 16L18 15ZM21 16L21 17L22 17L22 18L23 18L23 17L24 17L24 18L25 18L25 19L26 19L26 18L25 18L25 17L24 17L24 16L23 16L23 17L22 17L22 16ZM4 17L4 18L5 18L5 19L6 19L6 18L5 18L5 17ZM14 19L14 20L15 20L15 19ZM21 21L21 24L24 24L24 21ZM25 21L25 24L27 24L27 22L26 22L26 21ZM22 22L22 23L23 23L23 22ZM14 23L14 24L15 24L15 25L16 25L16 26L17 26L17 27L18 27L18 26L17 26L17 25L19 25L19 24L17 24L17 25L16 25L16 24L15 24L15 23ZM10 24L10 25L9 25L9 26L10 26L10 25L11 25L11 24ZM22 25L22 26L20 26L20 27L22 27L22 26L25 26L25 25ZM14 27L14 28L15 28L15 27ZM0 0L0 7L7 7L7 0ZM1 1L1 6L6 6L6 1ZM2 2L2 5L5 5L5 2ZM22 0L22 7L29 7L29 0ZM23 1L23 6L28 6L28 1ZM24 2L24 5L27 5L27 2ZM0 22L0 29L7 29L7 22ZM1 23L1 28L6 28L6 23ZM2 24L2 27L5 27L5 24Z" fill="#000000"/></g></g></svg>
