<?xml version="1.0" encoding="UTF-8"?>
<svg xmlns="http://www.w3.org/2000/svg" version="1.1" width="100" height="100" viewBox="0 0 100 100"><rect x="0" y="0" width="100" height="100" fill="#ffffff"/><g transform="scale(3.448)"><g transform="translate(0,0)"><path fill-rule="evenodd" d="M10 0L10 2L11 2L11 0ZM12 0L12 1L13 1L13 2L12 2L12 4L13 4L13 3L14 3L14 4L15 4L15 3L16 3L16 4L17 4L17 5L15 5L15 6L14 6L14 8L15 8L15 9L12 9L12 7L13 7L13 5L11 5L11 6L10 6L10 4L11 4L11 3L8 3L8 4L9 4L9 5L8 5L8 7L9 7L9 8L6 8L6 9L7 9L7 10L4 10L4 11L7 11L7 12L5 12L5 13L7 13L7 14L6 14L6 15L7 15L7 16L6 16L6 17L7 17L7 18L6 18L6 19L5 19L5 20L4 20L4 21L5 21L5 20L6 20L6 21L7 21L7 20L8 20L8 19L9 19L9 20L10 20L10 21L11 21L11 18L10 18L10 17L12 17L12 18L13 18L13 19L12 19L12 21L13 21L13 20L14 20L14 21L17 21L17 22L18 22L18 24L15 24L15 23L16 23L16 22L15 22L15 23L14 23L14 24L15 24L15 25L12 25L12 23L13 23L13 22L10 22L10 23L9 23L9 21L8 21L8 23L9 23L9 24L8 24L8 29L11 29L11 28L9 28L9 24L10 24L10 25L12 25L12 26L13 26L13 27L12 27L12 29L13 29L13 28L14 28L14 29L19 29L19 28L22 28L22 27L23 27L23 29L24 29L24 28L25 28L25 26L26 26L26 25L27 25L27 28L26 28L26 29L27 29L27 28L28 28L28 26L29 26L29 25L27 25L27 24L28 24L28 22L29 22L29 21L28 21L28 20L29 20L29 19L28 19L28 20L25 20L25 17L26 17L26 18L29 18L29 17L27 17L27 16L29 16L29 15L28 15L28 14L29 14L29 13L28 13L28 14L26 14L26 13L27 13L27 12L25 12L25 10L26 10L26 11L27 11L27 10L29 10L29 9L28 9L28 8L27 8L27 10L26 10L26 8L25 8L25 9L24 9L24 8L23 8L23 9L22 9L22 8L21 8L21 6L20 6L20 7L19 7L19 6L18 6L18 7L19 7L19 8L17 8L17 9L16 9L16 8L15 8L15 6L16 6L16 7L17 7L17 5L20 5L20 4L21 4L21 3L20 3L20 4L19 4L19 1L20 1L20 2L21 2L21 0L18 0L18 1L17 1L17 2L18 2L18 3L16 3L16 0L15 0L15 1L14 1L14 0ZM8 1L8 2L9 2L9 1ZM14 2L14 3L15 3L15 2ZM9 6L9 7L10 7L10 6ZM11 6L11 7L12 7L12 6ZM0 8L0 11L1 11L1 9L5 9L5 8ZM10 8L10 9L9 9L9 12L8 12L8 14L7 14L7 15L8 15L8 14L9 14L9 15L10 15L10 14L13 14L13 15L12 15L12 17L15 17L15 18L16 18L16 19L14 19L14 20L18 20L18 19L17 19L17 18L18 18L18 17L19 17L19 16L20 16L20 18L19 18L19 21L18 21L18 22L19 22L19 21L20 21L20 20L21 20L21 19L22 19L22 20L24 20L24 19L23 19L23 18L24 18L24 17L25 17L25 16L27 16L27 15L26 15L26 14L25 14L25 15L24 15L24 14L23 14L23 15L22 15L22 14L21 14L21 16L20 16L20 14L19 14L19 13L21 13L21 12L22 12L22 13L25 13L25 12L23 12L23 10L24 10L24 9L23 9L23 10L22 10L22 9L21 9L21 8L19 8L19 9L17 9L17 10L18 10L18 11L16 11L16 12L19 12L19 13L14 13L14 12L15 12L15 11L14 11L14 12L13 12L13 13L12 13L12 11L13 11L13 10L12 10L12 9L11 9L11 8ZM10 9L10 11L11 11L11 9ZM15 9L15 10L16 10L16 9ZM19 9L19 10L20 10L20 11L21 11L21 9ZM2 10L2 12L3 12L3 10ZM28 11L28 12L29 12L29 11ZM9 12L9 13L11 13L11 12ZM0 13L0 15L1 15L1 13ZM3 13L3 15L5 15L5 14L4 14L4 13ZM15 14L15 15L14 15L14 16L15 16L15 17L18 17L18 16L19 16L19 14L17 14L17 15L18 15L18 16L15 16L15 15L16 15L16 14ZM0 16L0 21L1 21L1 18L2 18L2 17L5 17L5 16L2 16L2 17L1 17L1 16ZM8 16L8 18L7 18L7 19L6 19L6 20L7 20L7 19L8 19L8 18L9 18L9 17L10 17L10 16ZM21 16L21 17L22 17L22 18L23 18L23 17L24 17L24 16L23 16L23 17L22 17L22 16ZM2 20L2 21L3 21L3 20ZM21 21L21 24L24 24L24 21ZM26 21L26 22L25 22L25 24L27 24L27 22L28 22L28 21ZM22 22L22 23L23 23L23 22ZM10 23L10 24L11 24L11 23ZM19 23L19 25L15 25L15 26L17 26L17 27L14 27L14 28L19 28L19 27L22 27L22 26L25 26L25 25L22 25L22 26L19 26L19 25L20 25L20 23ZM0 0L0 7L7 7L7 0ZM1 1L1 6L6 6L6 1ZM2 2L2 5L5 5L5 2ZM22 0L22 7L29 7L29 0ZM23 1L23 6L28 6L28 1ZM24 2L24 5L27 5L27 2ZM0 22L0 29L7 29L7 22ZM1 23L1 28L6 28L6 23ZM2 24L2 27L5 27L5 24Z" fill="#000000"/></g></g></svg>
