<?xml version="1.0" encoding="UTF-8"?>
<svg xmlns="http://www.w3.org/2000/svg" version="1.1" width="100" height="100" viewBox="0 0 100 100"><rect x="0" y="0" width="100" height="100" fill="#ffffff"/><g transform="scale(3.448)"><g transform="translate(0,0)"><path fill-rule="evenodd" d="M10 0L10 2L11 2L11 0ZM12 0L12 1L13 1L13 2L12 2L12 4L13 4L13 3L14 3L14 4L16 4L16 5L15 5L15 6L14 6L14 8L15 8L15 9L12 9L12 7L13 7L13 5L11 5L11 6L10 6L10 4L11 4L11 3L8 3L8 4L9 4L9 5L8 5L8 7L9 7L9 8L6 8L6 9L7 9L7 10L5 10L5 8L0 8L0 9L4 9L4 10L3 10L3 11L2 11L2 12L4 12L4 14L6 14L6 15L3 15L3 14L2 14L2 13L1 13L1 10L0 10L0 13L1 13L1 14L0 14L0 16L1 16L1 17L0 17L0 21L1 21L1 18L4 18L4 19L3 19L3 20L6 20L6 21L7 21L7 20L6 20L6 19L7 19L7 18L8 18L8 23L9 23L9 24L8 24L8 29L11 29L11 27L10 27L10 26L11 26L11 25L12 25L12 26L13 26L13 27L12 27L12 29L13 29L13 28L14 28L14 29L16 29L16 28L17 28L17 29L18 29L18 28L17 28L17 27L16 27L16 26L15 26L15 25L19 25L19 26L22 26L22 27L23 27L23 29L24 29L24 28L25 28L25 26L22 26L22 25L26 25L26 26L27 26L27 28L26 28L26 29L27 29L27 28L28 28L28 26L29 26L29 25L27 25L27 24L28 24L28 23L27 23L27 22L29 22L29 21L28 21L28 20L29 20L29 19L28 19L28 18L29 18L29 17L28 17L28 18L26 18L26 19L28 19L28 20L25 20L25 17L27 17L27 16L25 16L25 13L27 13L27 14L26 14L26 15L27 15L27 14L29 14L29 13L27 13L27 12L25 12L25 11L24 11L24 10L26 10L26 11L28 11L28 10L29 10L29 9L28 9L28 8L27 8L27 9L28 9L28 10L26 10L26 8L25 8L25 9L24 9L24 8L23 8L23 9L22 9L22 8L20 8L20 7L21 7L21 6L20 6L20 7L19 7L19 6L18 6L18 7L19 7L19 8L17 8L17 5L21 5L21 4L19 4L19 3L20 3L20 2L21 2L21 0L18 0L18 1L17 1L17 2L18 2L18 3L17 3L17 4L16 4L16 3L14 3L14 2L16 2L16 0L15 0L15 1L14 1L14 0ZM8 1L8 2L9 2L9 1ZM18 1L18 2L20 2L20 1ZM9 6L9 7L10 7L10 6ZM11 6L11 7L12 7L12 6ZM15 6L15 7L16 7L16 6ZM10 8L10 9L8 9L8 10L7 10L7 11L6 11L6 12L5 12L5 11L4 11L4 12L5 12L5 13L6 13L6 14L7 14L7 13L6 13L6 12L7 12L7 11L8 11L8 10L9 10L9 12L11 12L11 13L10 13L10 14L9 14L9 13L8 13L8 14L9 14L9 15L6 15L6 16L5 16L5 17L6 17L6 18L7 18L7 17L6 17L6 16L9 16L9 17L10 17L10 18L9 18L9 20L10 20L10 18L11 18L11 22L9 22L9 23L10 23L10 24L9 24L9 25L10 25L10 24L11 24L11 22L13 22L13 23L12 23L12 25L15 25L15 24L14 24L14 23L15 23L15 22L16 22L16 24L18 24L18 23L17 23L17 22L18 22L18 21L19 21L19 22L20 22L20 20L21 20L21 19L22 19L22 20L23 20L23 18L22 18L22 17L25 17L25 16L23 16L23 15L24 15L24 13L25 13L25 12L24 12L24 11L22 11L22 13L23 13L23 15L22 15L22 14L21 14L21 16L20 16L20 14L19 14L19 13L21 13L21 10L22 10L22 9L20 9L20 8L19 8L19 9L15 9L15 10L19 10L19 11L17 11L17 12L19 12L19 13L14 13L14 12L15 12L15 11L14 11L14 12L13 12L13 13L12 13L12 11L13 11L13 10L12 10L12 9L11 9L11 8ZM10 9L10 11L11 11L11 9ZM19 9L19 10L20 10L20 9ZM23 9L23 10L24 10L24 9ZM19 11L19 12L20 12L20 11ZM23 12L23 13L24 13L24 12ZM1 14L1 16L2 16L2 17L4 17L4 16L2 16L2 14ZM11 14L11 15L9 15L9 16L11 16L11 17L12 17L12 18L13 18L13 19L12 19L12 21L13 21L13 20L14 20L14 21L16 21L16 22L17 22L17 21L18 21L18 20L17 20L17 21L16 21L16 20L14 20L14 19L16 19L16 18L15 18L15 17L18 17L18 18L20 18L20 16L19 16L19 15L18 15L18 14L17 14L17 15L18 15L18 16L15 16L15 15L16 15L16 14L15 14L15 15L14 15L14 16L15 16L15 17L12 17L12 15L13 15L13 14ZM28 15L28 16L29 16L29 15ZM18 16L18 17L19 17L19 16ZM21 16L21 17L22 17L22 16ZM19 19L19 20L20 20L20 19ZM21 21L21 24L24 24L24 21ZM25 21L25 24L27 24L27 23L26 23L26 22L27 22L27 21ZM22 22L22 23L23 23L23 22ZM19 24L19 25L20 25L20 24ZM14 27L14 28L15 28L15 27ZM20 27L20 28L19 28L19 29L20 29L20 28L21 28L21 27ZM0 0L0 7L7 7L7 0ZM1 1L1 6L6 6L6 1ZM2 2L2 5L5 5L5 2ZM22 0L22 7L29 7L29 0ZM23 1L23 6L28 6L28 1ZM24 2L24 5L27 5L27 2ZM0 22L0 29L7 29L7 22ZM1 23L1 28L6 28L6 23ZM2 24L2 27L5 27L5 24Z" fill="#000000"/></g></g></svg>
