<?xml version="1.0" encoding="UTF-8"?>
<svg xmlns="http://www.w3.org/2000/svg" version="1.1" width="100" height="100" viewBox="0 0 100 100"><rect x="0" y="0" width="100" height="100" fill="#ffffff"/><g transform="scale(3.448)"><g transform="translate(0,0)"><path fill-rule="evenodd" d="M10 0L10 2L11 2L11 0ZM12 0L12 1L13 1L13 2L12 2L12 4L13 4L13 3L14 3L14 4L17 4L17 5L20 5L20 7L19 7L19 6L18 6L18 7L19 7L19 8L20 8L20 9L18 9L18 8L17 8L17 9L16 9L16 8L15 8L15 6L16 6L16 7L17 7L17 6L16 6L16 5L15 5L15 6L14 6L14 8L15 8L15 9L12 9L12 7L13 7L13 5L11 5L11 6L10 6L10 4L11 4L11 3L8 3L8 4L9 4L9 5L8 5L8 7L9 7L9 8L6 8L6 9L5 9L5 8L0 8L0 10L1 10L1 11L0 11L0 12L2 12L2 13L1 13L1 14L0 14L0 21L1 21L1 17L2 17L2 19L3 19L3 21L4 21L4 20L6 20L6 21L8 21L8 23L10 23L10 22L11 22L11 25L9 25L9 24L8 24L8 29L9 29L9 28L10 28L10 29L11 29L11 28L10 28L10 27L9 27L9 26L11 26L11 25L12 25L12 26L13 26L13 27L12 27L12 29L13 29L13 28L14 28L14 29L16 29L16 28L17 28L17 29L18 29L18 28L17 28L17 27L16 27L16 26L17 26L17 25L19 25L19 26L20 26L20 25L21 25L21 26L22 26L22 27L20 27L20 28L19 28L19 29L20 29L20 28L23 28L23 29L24 29L24 28L25 28L25 26L24 26L24 25L27 25L27 28L26 28L26 29L27 29L27 28L28 28L28 26L29 26L29 25L27 25L27 24L28 24L28 22L29 22L29 21L28 21L28 22L27 22L27 24L25 24L25 22L26 22L26 21L27 21L27 20L29 20L29 19L28 19L28 18L29 18L29 17L28 17L28 18L26 18L26 19L24 19L24 18L25 18L25 17L27 17L27 16L28 16L28 14L29 14L29 13L28 13L28 14L27 14L27 16L25 16L25 15L26 15L26 13L27 13L27 12L25 12L25 11L24 11L24 10L26 10L26 11L27 11L27 10L29 10L29 9L28 9L28 8L27 8L27 10L26 10L26 8L25 8L25 9L24 9L24 8L23 8L23 9L22 9L22 8L21 8L21 5L20 5L20 4L21 4L21 3L20 3L20 2L18 2L18 3L17 3L17 2L16 2L16 0L15 0L15 1L14 1L14 0ZM18 0L18 1L21 1L21 0ZM8 1L8 2L9 2L9 1ZM14 2L14 3L15 3L15 2ZM19 3L19 4L20 4L20 3ZM9 6L9 7L10 7L10 6ZM11 6L11 7L12 7L12 6ZM10 8L10 9L9 9L9 12L8 12L8 11L6 11L6 12L8 12L8 13L9 13L9 12L11 12L11 13L10 13L10 14L7 14L7 13L5 13L5 14L4 14L4 13L2 13L2 14L3 14L3 15L1 15L1 16L4 16L4 15L5 15L5 17L6 17L6 18L7 18L7 19L6 19L6 20L8 20L8 21L9 21L9 22L10 22L10 21L11 21L11 22L13 22L13 23L12 23L12 25L15 25L15 26L16 26L16 25L17 25L17 24L18 24L18 23L19 23L19 25L20 25L20 23L19 23L19 22L18 22L18 21L19 21L19 20L21 20L21 19L22 19L22 20L24 20L24 19L23 19L23 18L22 18L22 17L25 17L25 16L24 16L24 15L25 15L25 14L24 14L24 13L25 13L25 12L24 12L24 13L23 13L23 12L22 12L22 13L23 13L23 15L22 15L22 14L21 14L21 13L20 13L20 14L19 14L19 13L17 13L17 12L21 12L21 11L23 11L23 10L24 10L24 9L23 9L23 10L22 10L22 9L20 9L20 10L19 10L19 11L17 11L17 10L18 10L18 9L17 9L17 10L16 10L16 9L15 9L15 10L16 10L16 11L14 11L14 12L13 12L13 13L12 13L12 11L13 11L13 10L12 10L12 9L11 9L11 8ZM1 9L1 10L2 10L2 11L3 11L3 12L4 12L4 11L5 11L5 10L4 10L4 11L3 11L3 10L2 10L2 9ZM6 9L6 10L8 10L8 9ZM10 9L10 11L11 11L11 9ZM20 10L20 11L21 11L21 10ZM16 11L16 12L14 12L14 13L16 13L16 14L15 14L15 15L14 15L14 16L16 16L16 17L19 17L19 18L15 18L15 17L12 17L12 15L13 15L13 14L10 14L10 15L11 15L11 16L9 16L9 15L7 15L7 14L6 14L6 15L7 15L7 16L6 16L6 17L7 17L7 16L8 16L8 17L9 17L9 18L8 18L8 20L9 20L9 19L10 19L10 20L11 20L11 17L12 17L12 18L13 18L13 19L12 19L12 21L13 21L13 20L14 20L14 21L18 21L18 20L19 20L19 18L20 18L20 16L21 16L21 17L22 17L22 16L21 16L21 14L20 14L20 16L19 16L19 14L17 14L17 13L16 13L16 12L17 12L17 11ZM28 11L28 12L29 12L29 11ZM16 14L16 16L18 16L18 15L17 15L17 14ZM3 17L3 19L4 19L4 17ZM14 19L14 20L15 20L15 19ZM16 19L16 20L18 20L18 19ZM26 19L26 20L25 20L25 21L26 21L26 20L27 20L27 19ZM21 21L21 24L24 24L24 21ZM15 22L15 23L14 23L14 24L15 24L15 25L16 25L16 23L18 23L18 22ZM22 22L22 23L23 23L23 22ZM22 25L22 26L23 26L23 27L24 27L24 26L23 26L23 25ZM14 27L14 28L16 28L16 27ZM0 0L0 7L7 7L7 0ZM1 1L1 6L6 6L6 1ZM2 2L2 5L5 5L5 2ZM22 0L22 7L29 7L29 0ZM23 1L23 6L28 6L28 1ZM24 2L24 5L27 5L27 2ZM0 22L0 29L7 29L7 22ZM1 23L1 28L6 28L6 23ZM2 24L2 27L5 27L5 24Z" fill="#000000"/></g></g></svg>
