<?xml version="1.0" encoding="UTF-8"?>
<svg xmlns="http://www.w3.org/2000/svg" version="1.1" width="100" height="100" viewBox="0 0 100 100"><rect x="0" y="0" width="100" height="100" fill="#ffffff"/><g transform="scale(3.448)"><g transform="translate(0,0)"><path fill-rule="evenodd" d="M10 0L10 2L11 2L11 0ZM12 0L12 1L13 1L13 2L12 2L12 4L13 4L13 3L14 3L14 4L16 4L16 5L15 5L15 6L14 6L14 8L15 8L15 9L12 9L12 7L13 7L13 5L11 5L11 6L10 6L10 4L11 4L11 3L8 3L8 4L9 4L9 5L8 5L8 7L9 7L9 8L6 8L6 9L5 9L5 8L0 8L0 11L1 11L1 13L2 13L2 14L5 14L5 13L4 13L4 11L5 11L5 12L6 12L6 13L7 13L7 14L6 14L6 15L7 15L7 16L5 16L5 17L7 17L7 18L6 18L6 19L4 19L4 20L2 20L2 21L5 21L5 20L6 20L6 21L8 21L8 23L9 23L9 24L8 24L8 29L10 29L10 28L11 28L11 27L9 27L9 24L10 24L10 23L11 23L11 25L12 25L12 26L13 26L13 27L12 27L12 29L13 29L13 28L14 28L14 29L16 29L16 28L14 28L14 27L17 27L17 26L15 26L15 25L19 25L19 24L17 24L17 23L20 23L20 25L23 25L23 26L21 26L21 27L20 27L20 26L18 26L18 28L17 28L17 29L18 29L18 28L19 28L19 29L20 29L20 28L21 28L21 29L24 29L24 28L25 28L25 27L27 27L27 28L26 28L26 29L27 29L27 28L28 28L28 26L29 26L29 25L27 25L27 24L28 24L28 22L29 22L29 20L25 20L25 18L26 18L26 17L27 17L27 16L25 16L25 17L24 17L24 16L23 16L23 17L22 17L22 16L21 16L21 14L22 14L22 15L23 15L23 13L24 13L24 15L25 15L25 13L27 13L27 14L26 14L26 15L27 15L27 14L29 14L29 13L28 13L28 12L25 12L25 11L27 11L27 10L29 10L29 9L28 9L28 8L27 8L27 10L25 10L25 9L26 9L26 8L25 8L25 9L24 9L24 8L23 8L23 9L22 9L22 8L20 8L20 7L21 7L21 4L19 4L19 3L20 3L20 2L21 2L21 1L20 1L20 0L19 0L19 1L18 1L18 0L17 0L17 1L18 1L18 2L19 2L19 3L17 3L17 2L16 2L16 0L15 0L15 1L14 1L14 0ZM8 1L8 2L9 2L9 1ZM19 1L19 2L20 2L20 1ZM14 2L14 3L15 3L15 2ZM16 3L16 4L17 4L17 3ZM16 5L16 6L15 6L15 8L19 8L19 9L15 9L15 10L16 10L16 11L14 11L14 12L13 12L13 13L12 13L12 11L13 11L13 10L12 10L12 9L11 9L11 8L10 8L10 9L9 9L9 11L8 11L8 12L11 12L11 13L9 13L9 14L7 14L7 15L9 15L9 16L7 16L7 17L9 17L9 16L10 16L10 17L11 17L11 18L9 18L9 19L10 19L10 20L9 20L9 21L10 21L10 22L9 22L9 23L10 23L10 22L13 22L13 23L12 23L12 25L15 25L15 24L14 24L14 23L15 23L15 22L16 22L16 23L17 23L17 22L19 22L19 21L20 21L20 19L22 19L22 20L23 20L23 18L24 18L24 17L23 17L23 18L22 18L22 17L21 17L21 16L20 16L20 14L19 14L19 16L20 16L20 18L19 18L19 17L17 17L17 16L18 16L18 15L17 15L17 14L18 14L18 13L21 13L21 12L22 12L22 13L23 13L23 11L24 11L24 9L23 9L23 11L20 11L20 10L22 10L22 9L20 9L20 8L19 8L19 7L20 7L20 5ZM9 6L9 7L10 7L10 6ZM11 6L11 7L12 7L12 6ZM16 6L16 7L17 7L17 6ZM18 6L18 7L19 7L19 6ZM1 9L1 10L2 10L2 12L3 12L3 11L4 11L4 10L3 10L3 9ZM6 9L6 10L5 10L5 11L6 11L6 12L7 12L7 11L6 11L6 10L8 10L8 9ZM10 9L10 11L11 11L11 9ZM19 9L19 10L17 10L17 11L16 11L16 12L14 12L14 13L18 13L18 12L17 12L17 11L19 11L19 10L20 10L20 9ZM24 12L24 13L25 13L25 12ZM9 14L9 15L11 15L11 17L12 17L12 18L13 18L13 19L12 19L12 21L13 21L13 20L14 20L14 21L19 21L19 20L14 20L14 19L18 19L18 18L17 18L17 17L16 17L16 16L17 16L17 15L16 15L16 14L15 14L15 15L14 15L14 16L15 16L15 17L12 17L12 15L13 15L13 14ZM0 15L0 16L2 16L2 15ZM3 15L3 16L4 16L4 15ZM15 15L15 16L16 16L16 15ZM0 17L0 21L1 21L1 18L2 18L2 19L3 19L3 18L4 18L4 17ZM15 17L15 18L16 18L16 17ZM28 17L28 18L27 18L27 19L28 19L28 18L29 18L29 17ZM7 18L7 19L6 19L6 20L7 20L7 19L8 19L8 18ZM21 21L21 24L24 24L24 21ZM25 21L25 24L27 24L27 22L28 22L28 21ZM22 22L22 23L23 23L23 22ZM24 25L24 26L23 26L23 27L22 27L22 28L23 28L23 27L24 27L24 26L25 26L25 25ZM26 25L26 26L27 26L27 25ZM19 27L19 28L20 28L20 27ZM0 0L0 7L7 7L7 0ZM1 1L1 6L6 6L6 1ZM2 2L2 5L5 5L5 2ZM22 0L22 7L29 7L29 0ZM23 1L23 6L28 6L28 1ZM24 2L24 5L27 5L27 2ZM0 22L0 29L7 29L7 22ZM1 23L1 28L6 28L6 23ZM2 24L2 27L5 27L5 24Z" fill="#000000"/></g></g></svg>
