<?xml version="1.0" encoding="UTF-8"?>
<svg xmlns="http://www.w3.org/2000/svg" version="1.1" width="100" height="100" viewBox="0 0 100 100"><rect x="0" y="0" width="100" height="100" fill="#ffffff"/><g transform="scale(3.448)"><g transform="translate(0,0)"><path fill-rule="evenodd" d="M10 0L10 2L11 2L11 0ZM12 0L12 1L13 1L13 2L12 2L12 4L13 4L13 3L14 3L14 4L16 4L16 5L15 5L15 6L14 6L14 8L15 8L15 9L12 9L12 7L13 7L13 5L11 5L11 6L10 6L10 4L11 4L11 3L8 3L8 4L9 4L9 5L8 5L8 7L9 7L9 8L6 8L6 9L7 9L7 10L6 10L6 11L3 11L3 12L6 12L6 13L7 13L7 14L6 14L6 15L7 15L7 16L6 16L6 17L7 17L7 18L6 18L6 19L7 19L7 20L4 20L4 19L5 19L5 16L4 16L4 13L3 13L3 14L2 14L2 15L3 15L3 17L2 17L2 16L0 16L0 21L1 21L1 18L3 18L3 17L4 17L4 19L2 19L2 21L8 21L8 23L10 23L10 24L8 24L8 29L10 29L10 27L9 27L9 26L10 26L10 25L12 25L12 26L13 26L13 27L12 27L12 29L13 29L13 28L14 28L14 29L16 29L16 28L14 28L14 27L18 27L18 28L17 28L17 29L18 29L18 28L21 28L21 29L22 29L22 28L21 28L21 26L22 26L22 27L23 27L23 29L24 29L24 28L25 28L25 27L26 27L26 25L27 25L27 28L26 28L26 29L27 29L27 28L28 28L28 26L29 26L29 25L27 25L27 24L28 24L28 22L29 22L29 21L28 21L28 22L26 22L26 23L27 23L27 24L25 24L25 21L27 21L27 20L28 20L28 18L29 18L29 17L28 17L28 18L27 18L27 20L25 20L25 19L26 19L26 17L27 17L27 16L26 16L26 14L29 14L29 13L27 13L27 12L28 12L28 10L29 10L29 9L28 9L28 8L27 8L27 9L28 9L28 10L26 10L26 8L25 8L25 9L24 9L24 8L23 8L23 9L22 9L22 8L20 8L20 9L19 9L19 8L17 8L17 9L16 9L16 8L15 8L15 6L16 6L16 7L17 7L17 6L16 6L16 5L20 5L20 4L21 4L21 3L17 3L17 2L16 2L16 0L15 0L15 1L14 1L14 0ZM17 0L17 1L18 1L18 2L19 2L19 1L20 1L20 2L21 2L21 1L20 1L20 0L19 0L19 1L18 1L18 0ZM8 1L8 2L9 2L9 1ZM14 2L14 3L15 3L15 2ZM16 3L16 4L17 4L17 3ZM9 6L9 7L10 7L10 6ZM11 6L11 7L12 7L12 6ZM18 6L18 7L19 7L19 6ZM20 6L20 7L21 7L21 6ZM0 8L0 9L1 9L1 11L0 11L0 12L2 12L2 9L4 9L4 10L5 10L5 8ZM10 8L10 9L9 9L9 11L8 11L8 10L7 10L7 11L6 11L6 12L7 12L7 13L9 13L9 12L11 12L11 13L10 13L10 14L13 14L13 15L12 15L12 17L11 17L11 16L10 16L10 15L9 15L9 16L10 16L10 17L9 17L9 18L7 18L7 19L9 19L9 20L8 20L8 21L9 21L9 22L10 22L10 23L11 23L11 22L13 22L13 23L12 23L12 25L15 25L15 26L19 26L19 27L20 27L20 26L21 26L21 25L20 25L20 24L19 24L19 25L15 25L15 24L14 24L14 23L15 23L15 22L18 22L18 21L19 21L19 22L20 22L20 20L21 20L21 19L22 19L22 20L23 20L23 19L24 19L24 17L26 17L26 16L24 16L24 17L23 17L23 15L22 15L22 14L21 14L21 13L20 13L20 14L19 14L19 13L14 13L14 12L15 12L15 11L14 11L14 12L13 12L13 13L12 13L12 11L13 11L13 10L12 10L12 9L11 9L11 8ZM10 9L10 11L11 11L11 9ZM15 9L15 10L16 10L16 11L17 11L17 12L18 12L18 11L17 11L17 10L19 10L19 12L21 12L21 9L20 9L20 10L19 10L19 9L17 9L17 10L16 10L16 9ZM22 10L22 11L23 11L23 12L22 12L22 13L25 13L25 14L24 14L24 15L25 15L25 14L26 14L26 13L25 13L25 12L27 12L27 11L25 11L25 10L24 10L24 11L23 11L23 10ZM24 11L24 12L25 12L25 11ZM0 14L0 15L1 15L1 14ZM15 14L15 15L14 15L14 16L15 16L15 17L12 17L12 18L13 18L13 19L12 19L12 21L13 21L13 20L14 20L14 21L18 21L18 20L17 20L17 19L19 19L19 20L20 20L20 19L21 19L21 18L20 18L20 16L21 16L21 17L22 17L22 18L23 18L23 17L22 17L22 16L21 16L21 14L20 14L20 16L19 16L19 14L18 14L18 16L17 16L17 17L16 17L16 16L15 16L15 15L17 15L17 14ZM7 16L7 17L8 17L8 16ZM18 16L18 17L17 17L17 18L16 18L16 17L15 17L15 18L16 18L16 19L17 19L17 18L18 18L18 17L19 17L19 16ZM9 18L9 19L11 19L11 18ZM19 18L19 19L20 19L20 18ZM14 19L14 20L15 20L15 19ZM9 20L9 21L10 21L10 22L11 22L11 21L10 21L10 20ZM21 21L21 24L24 24L24 21ZM22 22L22 23L23 23L23 22ZM17 23L17 24L18 24L18 23ZM22 25L22 26L23 26L23 27L24 27L24 26L25 26L25 25L24 25L24 26L23 26L23 25ZM0 0L0 7L7 7L7 0ZM1 1L1 6L6 6L6 1ZM2 2L2 5L5 5L5 2ZM22 0L22 7L29 7L29 0ZM23 1L23 6L28 6L28 1ZM24 2L24 5L27 5L27 2ZM0 22L0 29L7 29L7 22ZM1 23L1 28L6 28L6 23ZM2 24L2 27L5 27L5 24Z" fill="#000000"/></g></g></svg>
