<svg fill="#000000" xmlns="http://www.w3.org/2000/svg" viewBox="0 0 30 30" width="30px" height="30px"><path d="M 4.984375 3.9863281 A 1.0001 1.0001 0 0 0 4 5 L 4 25 A 1.0001 1.0001 0 0 0 5 26 L 25 26 A 1.0001 1.0001 0 1 0 25 24 L 6 24 L 6 5 A 1.0001 1.0001 0 0 0 4.984375 3.9863281 z M 21.990234 4.9902344 A 1.0001 1.0001 0 0 0 21.292969 6.7070312 L 22.585938 8 L 18 8 C 13.593562 8 10 11.593562 10 16 L 10 21 A 1.0001 1.0001 0 1 0 12 21 L 12 16 C 12 12.674438 14.674438 10 18 10 L 22.585938 10 L 21.292969 11.292969 A 1.0001 1.0001 0 1 0 22.707031 12.707031 L 25.707031 9.7070312 A 1.0001 1.0001 0 0 0 25.707031 8.2929688 L 22.707031 5.2929688 A 1.0001 1.0001 0 0 0 21.990234 4.9902344 z"/></svg>