<?xml version="1.0" encoding="UTF-8"?>
<svg xmlns="http://www.w3.org/2000/svg" version="1.1" width="100" height="100" viewBox="0 0 100 100"><rect x="0" y="0" width="100" height="100" fill="#ffffff"/><g transform="scale(3.448)"><g transform="translate(0,0)"><path fill-rule="evenodd" d="M10 0L10 2L11 2L11 0ZM12 0L12 1L13 1L13 2L12 2L12 4L13 4L13 3L14 3L14 4L16 4L16 5L15 5L15 6L14 6L14 8L15 8L15 9L12 9L12 7L13 7L13 5L11 5L11 6L10 6L10 4L11 4L11 3L8 3L8 4L9 4L9 5L8 5L8 7L9 7L9 8L6 8L6 9L7 9L7 10L6 10L6 11L5 11L5 12L4 12L4 11L2 11L2 9L4 9L4 10L5 10L5 8L0 8L0 10L1 10L1 11L0 11L0 12L1 12L1 13L0 13L0 14L3 14L3 15L1 15L1 17L0 17L0 21L1 21L1 18L2 18L2 19L3 19L3 20L2 20L2 21L4 21L4 19L3 19L3 18L5 18L5 16L6 16L6 17L7 17L7 16L6 16L6 15L7 15L7 14L5 14L5 12L6 12L6 13L7 13L7 12L8 12L8 13L11 13L11 12L9 12L9 11L8 11L8 9L10 9L10 11L11 11L11 9L12 9L12 10L13 10L13 11L12 11L12 13L13 13L13 12L14 12L14 13L19 13L19 14L15 14L15 15L14 15L14 16L15 16L15 17L12 17L12 15L13 15L13 14L11 14L11 15L10 15L10 16L11 16L11 17L9 17L9 16L8 16L8 17L9 17L9 20L10 20L10 21L8 21L8 23L9 23L9 24L8 24L8 29L9 29L9 24L10 24L10 25L12 25L12 26L13 26L13 27L12 27L12 29L13 29L13 28L14 28L14 29L19 29L19 28L21 28L21 29L22 29L22 28L21 28L21 27L23 27L23 29L24 29L24 28L25 28L25 26L26 26L26 27L27 27L27 28L26 28L26 29L27 29L27 28L28 28L28 26L29 26L29 25L27 25L27 24L28 24L28 23L27 23L27 24L26 24L26 23L25 23L25 21L26 21L26 22L29 22L29 21L27 21L27 20L29 20L29 19L27 19L27 20L25 20L25 19L26 19L26 18L25 18L25 17L24 17L24 16L26 16L26 17L27 17L27 18L29 18L29 17L27 17L27 16L26 16L26 14L25 14L25 13L27 13L27 12L25 12L25 11L24 11L24 12L25 12L25 13L22 13L22 12L21 12L21 13L19 13L19 12L14 12L14 11L17 11L17 10L18 10L18 11L19 11L19 10L20 10L20 11L23 11L23 9L24 9L24 10L26 10L26 11L28 11L28 10L29 10L29 9L28 9L28 8L27 8L27 9L28 9L28 10L26 10L26 8L25 8L25 9L24 9L24 8L23 8L23 9L22 9L22 8L21 8L21 5L20 5L20 4L21 4L21 3L17 3L17 1L16 1L16 0L15 0L15 1L14 1L14 0ZM19 0L19 1L20 1L20 0ZM8 1L8 2L9 2L9 1ZM14 2L14 3L15 3L15 2ZM16 3L16 4L17 4L17 3ZM16 5L16 6L15 6L15 8L19 8L19 9L18 9L18 10L19 10L19 9L20 9L20 10L22 10L22 9L20 9L20 8L19 8L19 7L20 7L20 5ZM9 6L9 7L10 7L10 6ZM11 6L11 7L12 7L12 6ZM16 6L16 7L17 7L17 6ZM18 6L18 7L19 7L19 6ZM10 8L10 9L11 9L11 8ZM15 9L15 10L17 10L17 9ZM1 11L1 12L2 12L2 13L3 13L3 12L2 12L2 11ZM6 11L6 12L7 12L7 11ZM28 13L28 14L27 14L27 15L28 15L28 14L29 14L29 13ZM4 14L4 16L5 16L5 14ZM8 14L8 15L9 15L9 14ZM19 14L19 16L18 16L18 15L15 15L15 16L16 16L16 17L15 17L15 18L16 18L16 17L17 17L17 18L18 18L18 17L19 17L19 16L20 16L20 18L19 18L19 19L16 19L16 20L15 20L15 19L14 19L14 20L13 20L13 21L12 21L12 19L13 19L13 18L12 18L12 17L11 17L11 19L10 19L10 20L11 20L11 21L10 21L10 22L9 22L9 23L10 23L10 24L11 24L11 23L10 23L10 22L13 22L13 23L12 23L12 25L15 25L15 26L16 26L16 27L17 27L17 28L19 28L19 27L21 27L21 26L25 26L25 25L26 25L26 26L27 26L27 25L26 25L26 24L25 24L25 25L20 25L20 24L18 24L18 23L17 23L17 22L18 22L18 21L19 21L19 22L20 22L20 20L21 20L21 19L22 19L22 20L23 20L23 19L24 19L24 17L23 17L23 15L25 15L25 14L23 14L23 15L22 15L22 14L21 14L21 16L20 16L20 14ZM2 16L2 17L3 17L3 16ZM17 16L17 17L18 17L18 16ZM21 16L21 17L22 17L22 18L23 18L23 17L22 17L22 16ZM6 18L6 19L7 19L7 20L5 20L5 21L7 21L7 20L8 20L8 19L7 19L7 18ZM20 18L20 19L19 19L19 20L20 20L20 19L21 19L21 18ZM14 20L14 21L15 21L15 20ZM16 20L16 21L18 21L18 20ZM21 21L21 24L24 24L24 21ZM15 22L15 23L14 23L14 24L15 24L15 25L18 25L18 27L19 27L19 26L20 26L20 25L18 25L18 24L17 24L17 23L16 23L16 22ZM22 22L22 23L23 23L23 22ZM15 23L15 24L16 24L16 23ZM14 27L14 28L15 28L15 27ZM10 28L10 29L11 29L11 28ZM0 0L0 7L7 7L7 0ZM1 1L1 6L6 6L6 1ZM2 2L2 5L5 5L5 2ZM22 0L22 7L29 7L29 0ZM23 1L23 6L28 6L28 1ZM24 2L24 5L27 5L27 2ZM0 22L0 29L7 29L7 22ZM1 23L1 28L6 28L6 23ZM2 24L2 27L5 27L5 24Z" fill="#000000"/></g></g></svg>
