<svg fill="#000000" xmlns="http://www.w3.org/2000/svg" viewBox="0 0 50 50" width="50px" height="50px"><path d="M 37 0 C 32.589844 0 29 3.589844 29 8 C 29 12.410156 32.589844 16 37 16 C 41.410156 16 45 12.410156 45 8 C 45 3.589844 41.410156 0 37 0 Z M 21.5 1 C 17.914063 1 15 3.914063 15 7.5 C 15 11.085938 17.914063 14 21.5 14 C 25.085938 14 28 11.085938 28 7.5 C 28 3.914063 25.085938 1 21.5 1 Z M 9 3 C 6.242188 3 4 5.242188 4 8 C 4 10.757813 6.242188 13 9 13 C 11.757813 13 14 10.757813 14 8 C 14 5.242188 11.757813 3 9 3 Z M 9 15 C 5.140625 15 2 18.140625 2 22 L 2 34 C 2 34.554688 2.449219 35 3 35 L 13 35 L 13 40 C 13 40.554688 13.449219 41 14 41 L 24 41 L 24 49 C 24 49.554688 24.449219 50 25 50 L 47 50 C 47.554688 50 48 49.554688 48 49 L 48 31 C 48 24.382813 42.617188 19 36 19 C 33.5625 19 31.230469 19.71875 29.292969 21.046875 C 27.957031 18.015625 24.9375 16 21.5 16 C 19.0625 16 16.828125 17.007813 15.21875 18.765625 C 14.050781 16.5 11.679688 15 9 15 Z"/></svg>