<svg xmlns="http://www.w3.org/2000/svg" width="127" height="139.35" viewBox="0 0 127 139.35">
  <g id="Polygon_7" data-name="Polygon 7" transform="translate(119 5.675) rotate(90)" fill="#f50000">
    <path d="M 87.33393859863281 115 L 40.66606140136719 115 C 37.33354187011719 115 34.04684066772461 114.1188201904297 31.16127967834473 112.4517211914063 C 28.27572059631348 110.7846221923828 25.87063980102539 108.3774566650391 24.2060604095459 105.4904632568359 L 0.8547199964523315 64.99044036865234 C -0.8069800138473511 62.10845947265625 -1.68529999256134 58.82672119140625 -1.68529999256134 55.5 C -1.68529999256134 52.17327880859375 -0.8069800138473511 48.89154052734375 0.8547199964523315 46.00954055786133 L 24.20607948303223 5.509560108184814 C 25.87066078186035 2.62253999710083 28.27572059631348 0.215379998087883 31.16130065917969 -1.451719999313354 C 34.04685974121094 -3.118819952011108 37.33354187011719 -4 40.66606140136719 -4 L 87.33393859863281 -4 C 90.66645812988281 -4 93.95316314697266 -3.118819952011108 96.83872222900391 -1.451719999313354 C 99.72428131103516 0.215379998087883 102.1293563842773 2.62253999710083 103.7939376831055 5.50954008102417 L 127.1452789306641 46.00955963134766 C 128.8069763183594 48.89154052734375 129.685302734375 52.17327880859375 129.685302734375 55.5 C 129.685302734375 58.82672119140625 128.8069763183594 62.10845947265625 127.1452789306641 64.99046325683594 L 103.7939376831055 105.4904403686523 C 102.1293563842773 108.3774566650391 99.72428131103516 110.7846221923828 96.83872222900391 112.4517211914063 C 93.95316314697266 114.1188201904297 90.66645812988281 115 87.33393859863281 115 Z" stroke="none"/>
    <path d="M 40.66606903076172 0 C 35.30397796630859 0 30.34969329833984 2.862258911132813 27.67133331298828 7.507545471191406 L 4.319976806640625 48.00754928588867 C 1.646286010742188 52.64471435546875 1.646286010742188 58.35526275634766 4.319976806640625 62.99245071411133 L 27.67133331298828 103.4924545288086 C 30.34967041015625 108.1377105712891 35.303955078125 111 40.66604614257813 111 L 87.33392333984375 111 C 92.696044921875 111 97.65030670166016 108.1377105712891 100.3286666870117 103.4924545288086 L 123.6800231933594 62.99245071411133 C 126.3537139892578 58.35528564453125 126.3537139892578 52.64471435546875 123.6800231933594 48.00754928588867 L 100.3286666870117 7.507545471191406 C 97.65030670166016 2.862258911132813 92.696044921875 0 87.33392333984375 0 L 40.66606903076172 0 M 40.66606903076172 -8 L 87.33392333984375 -8 C 95.53024291992188 -8 103.165168762207 -3.589027404785156 107.2591857910156 3.511573791503906 L 130.6105499267578 44.01157379150391 C 134.6963500976563 51.09788131713867 134.6963500976563 59.90211868286133 130.6105499267578 66.98843383789063 L 107.2591857910156 107.4884262084961 C 103.1651458740234 114.5890274047852 95.53024291992188 119 87.33392333984375 119 L 40.66604614257813 119 C 32.46971130371094 119 24.83480834960938 114.5890274047852 20.74080657958984 107.4884033203125 L -2.610549926757813 66.98843383789063 C -6.69635009765625 59.90209579467773 -6.69635009765625 51.09788131713867 -2.610549926757813 44.01157379150391 L 20.74080657958984 3.511573791503906 C 24.83483123779297 -3.589027404785156 32.46976470947266 -8 40.66606903076172 -8 Z" stroke="none" fill="#fff"/>
  </g>
</svg>
