<?xml version="1.0" standalone="no"?>
<!DOCTYPE svg PUBLIC "-//W3C//DTD SVG 20010904//EN"
 "http://www.w3.org/TR/2001/REC-SVG-20010904/DTD/svg10.dtd">
<svg version="1.0" xmlns="http://www.w3.org/2000/svg"
 width="2000.000000pt" height="2000.000000pt" viewBox="0 0 2000.000000 2000.000000"
 preserveAspectRatio="xMidYMid meet">

<g transform="translate(0.000000,2000.000000) scale(0.100000,-0.100000)"
fill="#000000" stroke="none">
<path d="M8718 18038 c-9 -7 -22 -26 -28 -41 -7 -19 -10 -423 -10 -1244 0
-1207 0 -1217 21 -1259 13 -28 36 -53 67 -72 37 -24 703 -410 852 -494 19 -11
586 -339 1260 -728 674 -389 1240 -715 1259 -724 27 -15 38 -16 61 -6 65 27
60 -77 60 1284 l0 1238 -22 39 c-12 21 -38 49 -57 62 -20 13 -787 457 -1706
988 -1171 676 -1680 965 -1705 967 -19 2 -43 -3 -52 -10z m635 -1603 l277
-160 0 -73 0 -73 -58 33 c-32 18 -187 107 -345 198 l-287 165 0 73 0 74 68
-39 c38 -21 193 -110 345 -198z m155 -339 l552 -318 0 -74 0 -73 -197 114
c-109 63 -361 208 -560 322 l-362 208 -1 73 c0 41 4 72 8 70 5 -1 257 -146
560 -322z m-68 -164 l445 -257 3 -74 c2 -41 -1 -71 -6 -69 -5 1 -219 124 -476
272 l-466 269 0 74 0 74 28 -16 c15 -9 227 -132 472 -273z m1058 -1021 l232
-134 0 -68 c0 -38 -4 -69 -8 -69 -4 0 -111 60 -237 133 l-230 132 -3 73 c-2
41 1 72 6 70 4 -1 112 -63 240 -137z m707 -408 l240 -139 3 -73 c2 -42 -1 -71
-6 -69 -5 1 -134 75 -286 162 l-276 160 0 73 0 74 43 -25 c23 -14 150 -87 282
-163z m623 -360 l182 -105 0 -70 c0 -61 -2 -69 -16 -64 -9 4 -99 54 -200 112
l-184 106 0 70 c0 63 2 69 18 63 9 -3 99 -54 200 -112z"/>
<path d="M4125 16355 c-694 -399 -717 -414 -744 -504 -15 -51 -16 -994 -1
-1022 6 -10 24 -26 40 -34 28 -14 33 -14 79 9 27 14 71 38 99 55 73 43 160 91
165 91 3 0 20 -24 38 -52 32 -50 47 -67 60 -68 6 0 79 202 79 219 0 11 -1 11
475 281 187 106 354 204 372 217 18 14 43 48 58 76 l25 51 0 505 c0 279 -4
511 -8 517 -10 16 -48 34 -69 34 -10 -1 -310 -169 -668 -375z m470 58 c13 -13
16 -29 13 -68 -4 -45 -36 -106 -282 -532 -285 -496 -318 -543 -374 -543 -35 0
-258 125 -278 156 -21 31 -11 89 23 141 27 43 79 83 107 83 9 0 53 -21 97 -46
53 -31 84 -43 90 -37 6 6 115 191 242 411 238 411 267 452 323 452 13 0 30 -8
39 -17z"/>
<path d="M14145 15979 c-32 -17 -78 -43 -102 -58 l-44 -28 44 0 c66 -1 -151
121 2057 -1165 443 -258 828 -487 856 -508 59 -44 137 -143 170 -215 55 -119
54 -111 52 -890 -1 -396 -4 -837 -7 -980 -6 -247 -7 -262 -29 -298 l-22 -39
57 33 c134 75 153 92 176 149 19 46 27 405 28 1295 l1 690 -26 82 c-34 106
-108 216 -186 280 -61 49 -114 80 -1005 598 -286 166 -810 471 -1165 677 -355
206 -664 382 -688 391 -61 24 -102 21 -167 -14z"/>
<path d="M4280 14324 c-415 -239 -758 -434 -762 -434 -5 0 -8 -170 -8 -378 l0
-378 -127 -75 -128 -75 -3 -751 -2 -752 130 -73 129 -73 1 -180 0 -180 362
-210 362 -211 209 121 208 120 -78 6 c-93 6 -109 13 -129 50 -33 65 -48 375
-19 416 20 28 107 83 132 83 31 0 71 -37 75 -68 3 -24 7 -27 47 -30 l43 -3
-34 43 c-91 112 -112 195 -63 243 42 42 76 27 100 -44 26 -79 65 -124 156
-177 45 -27 101 -66 125 -87 42 -37 43 -40 30 -65 -32 -63 -57 -180 -63 -298
l-6 -122 34 -7 c78 -16 489 -115 834 -202 215 -53 238 -57 350 -58 112 0 124
2 174 28 120 62 147 99 277 373 343 724 444 1024 444 1315 0 90 -25 219 -48
241 -24 24 -155 51 -211 44 -94 -13 -171 -82 -239 -215 -39 -75 -49 -98 -135
-301 -25 -58 -76 -170 -115 -250 -110 -229 -147 -314 -215 -490 l-63 -165 -40
-3 c-35 -2 -245 36 -399 72 -33 8 -98 24 -145 35 -150 34 -156 22 79 156 l210
120 1 968 0 968 -200 590 c-110 324 -204 598 -209 607 -5 10 -65 49 -133 87
-67 38 -136 77 -153 86 l-30 17 -755 -434z m902 -362 c4 -16 -33 -41 -211
-145 -119 -69 -219 -122 -223 -119 -3 4 -8 15 -10 25 -2 14 43 45 211 142 118
68 218 122 222 120 3 -3 9 -13 11 -23z m-262 -31 c0 -5 3 -16 6 -24 8 -21
-196 -142 -208 -124 -18 28 -3 45 90 98 103 60 112 64 112 50z m285 -42 c4
-12 3 -25 -2 -29 -14 -14 -426 -251 -429 -247 -2 2 -5 13 -6 26 -3 20 24 38
207 146 116 68 213 124 217 124 4 1 10 -8 13 -20z m-165 -209 c0 -9 -50 -43
-118 -82 -111 -64 -117 -67 -126 -48 -12 27 -10 29 120 105 107 62 124 65 124
25z m235 -20 c-3 -4 -100 -63 -216 -130 -164 -94 -214 -119 -220 -109 -5 8 -8
20 -6 27 1 7 99 69 217 137 199 115 215 123 222 104 5 -12 6 -24 3 -29z m-760
8 c14 -6 25 -18 25 -25 0 -8 -5 -11 -12 -7 -7 4 6 -13 30 -38 54 -56 43 -71
-14 -18 -24 22 -55 42 -70 46 -49 12 -120 -43 -138 -106 -6 -23 -6 -23 5 -5
46 78 117 112 167 79 41 -27 102 -78 102 -86 0 -16 -19 -7 -71 32 -31 23 -64
40 -79 40 -21 -1 -18 -3 14 -15 21 -7 53 -27 70 -42 17 -16 45 -35 61 -43 29
-13 29 -14 7 -18 -13 -2 -35 4 -50 14 l-27 17 24 -27 c14 -14 35 -26 48 -26
25 0 29 -10 11 -28 -9 -9 -9 -12 3 -12 21 0 22 -89 2 -97 -12 -5 -12 -7 -1
-15 10 -7 9 -11 -5 -22 -14 -11 -15 -15 -5 -20 10 -5 10 -7 1 -12 -7 -3 -13
-12 -13 -20 0 -37 -56 -73 -124 -79 -22 -2 -106 82 -106 107 0 10 -4 18 -10
18 -5 0 -11 28 -12 63 -1 49 -2 53 -5 20 -5 -48 -23 -59 -23 -14 0 17 -5 33
-11 37 -6 3 -9 15 -6 25 3 10 0 20 -5 21 -7 3 -7 19 -1 51 7 30 7 47 0 50 -13
4 -1 55 23 95 39 63 128 91 195 60z m540 -209 c4 -11 5 -22 3 -24 -9 -9 -181
-105 -188 -105 -7 0 -23 41 -17 46 11 9 184 104 189 104 4 0 10 -9 13 -21z"/>
<path d="M4428 13653 c6 -2 18 -2 25 0 6 3 1 5 -13 5 -14 0 -19 -2 -12 -5z"/>
<path d="M4374 13632 c-12 -9 -29 -30 -39 -47 l-18 -30 24 28 c13 16 35 37 49
47 14 11 21 20 15 20 -5 0 -20 -8 -31 -18z"/>
<path d="M4405 13560 c-3 -6 1 -7 9 -4 18 7 21 14 7 14 -6 0 -13 -4 -16 -10z"/>
<path d="M4402 13517 c-24 -26 -52 -88 -51 -114 0 -10 7 2 14 27 16 51 57 96
95 103 22 4 21 4 -6 6 -20 1 -38 -7 -52 -22z"/>
<path d="M4433 13493 c-10 -10 -14 -15 -9 -10 6 4 24 7 42 7 24 0 39 -8 59
-31 14 -17 28 -29 31 -27 7 8 -74 78 -90 78 -8 0 -22 -8 -33 -17z"/>
<path d="M4458 13463 c7 -3 16 -2 19 1 4 3 -2 6 -13 5 -11 0 -14 -3 -6 -6z"/>
<path d="M4419 13443 c-13 -16 -12 -17 4 -4 16 13 21 21 13 21 -2 0 -10 -8
-17 -17z"/>
<path d="M4490 13456 c0 -2 8 -10 18 -17 15 -13 16 -12 3 4 -13 16 -21 21 -21
13z"/>
<path d="M4435 13416 c-14 -14 -25 -31 -24 -38 0 -7 5 -3 11 10 14 27 56 41
69 21 5 -8 9 -34 10 -59 2 -39 3 -41 6 -11 6 47 -4 78 -27 91 -16 9 -25 6 -45
-14z"/>
<path d="M4452 13320 c0 -19 2 -27 5 -17 2 9 2 25 0 35 -3 9 -5 1 -5 -18z"/>
<path d="M4551 13331 c-1 -20 1 -21 14 -11 16 14 21 25 6 16 -5 -4 -12 0 -14
6 -3 7 -6 2 -6 -11z"/>
<path d="M4420 13225 c0 -30 6 -32 19 -6 8 14 7 20 -4 25 -11 4 -15 -2 -15
-19z"/>
<path d="M4522 13212 l-12 -25 25 23 c29 27 29 27 12 27 -7 0 -18 -12 -25 -25z"/>
<path d="M7045 14531 c-101 -30 -157 -62 -228 -132 -187 -186 -194 -449 -14
-615 32 -30 61 -54 65 -53 4 0 19 26 34 57 15 31 34 66 42 77 14 19 16 19 53
-24 21 -25 48 -58 59 -75 22 -31 22 -31 3 -68 -29 -56 -25 -115 11 -162 34
-45 36 -59 15 -109 -8 -20 -15 -51 -15 -69 0 -37 31 -102 45 -97 5 2 19 32 31
66 46 133 113 193 213 193 50 0 57 -3 92 -40 121 -128 1 -360 -187 -360 -49 0
-54 -2 -54 -22 0 -37 48 -130 88 -171 45 -47 111 -82 195 -104 78 -20 282 -14
339 10 81 34 269 204 361 326 25 34 48 63 51 64 3 1 26 -27 51 -63 61 -87 193
-229 285 -307 l75 -65 7 109 c8 137 31 223 123 447 117 290 155 433 155 590 0
196 -97 377 -243 454 -46 24 -63 27 -152 27 -93 0 -105 -2 -165 -32 -36 -18
-87 -54 -115 -80 l-50 -49 -48 33 c-64 43 -98 52 -247 63 -158 12 -214 27
-375 99 -71 33 -162 69 -201 80 -89 26 -214 27 -299 2z"/>
<path d="M10465 13541 c-143 -77 -202 -120 -221 -159 -18 -36 -19 -128 -27
-2371 -8 -2148 -7 -2339 8 -2407 26 -116 76 -207 164 -294 74 -74 107 -94
1561 -932 817 -471 1552 -895 1634 -942 206 -118 217 -118 423 5 108 65 128
91 141 176 7 45 13 846 16 2350 5 2517 9 2352 -59 2488 -74 151 -124 195 -370
337 -88 50 -178 103 -200 118 -22 14 -59 36 -82 48 -22 11 -639 366 -1370 788
-730 422 -1356 783 -1391 801 -88 46 -135 45 -227 -6z m433 -812 c163 -94 311
-186 329 -204 51 -54 56 -134 8 -143 -9 -2 -119 55 -243 126 -125 72 -235 134
-244 137 -17 7 -18 -9 -18 -239 0 -228 -1 -246 -18 -255 -27 -14 -81 17 -104
60 -16 31 -18 63 -18 361 0 181 2 328 5 328 3 0 139 -77 303 -171z m959 -1029
c192 -55 466 -244 654 -452 184 -204 405 -516 513 -725 34 -67 8 -118 -38 -74
-12 11 -43 58 -68 103 -66 118 -223 351 -315 465 -110 138 -302 327 -411 403
-166 117 -271 162 -415 181 -129 16 -224 -11 -367 -106 -37 -25 -74 -45 -81
-45 -38 0 -74 73 -51 105 35 49 201 139 296 161 75 17 190 10 283 -16z m1309
-283 c137 -79 279 -161 317 -182 l67 -39 0 -327 c0 -281 -2 -330 -15 -343 -24
-23 -73 0 -106 51 -17 25 -19 52 -19 279 l0 252 -247 144 c-266 154 -293 177
-293 247 0 37 14 61 36 61 6 0 123 -64 260 -143z m674 33 c30 -43 18 -37 -16
7 -15 20 -23 33 -16 29 6 -3 21 -20 32 -36z m-1916 -14 c244 -82 462 -235 659
-463 190 -220 305 -433 416 -772 41 -124 97 -268 132 -341 33 -70 59 -136 57
-146 -5 -31 -43 -29 -68 3 -45 58 -131 255 -200 463 -128 383 -244 584 -470
810 -168 168 -304 258 -490 322 -90 30 -103 32 -240 33 -120 0 -154 -3 -195
-19 -129 -50 -238 -136 -322 -253 -49 -68 -69 -77 -103 -41 -30 32 -25 72 16
134 69 103 181 201 287 249 101 47 152 55 302 51 119 -3 152 -8 219 -30z m-37
-266 c215 -59 450 -216 624 -414 157 -180 265 -376 424 -770 99 -247 149 -355
220 -469 47 -74 57 -123 29 -134 -53 -20 -174 197 -335 597 -102 256 -176 410
-247 520 -169 262 -419 467 -657 541 -295 91 -535 16 -753 -236 -31 -36 -60
-65 -65 -65 -18 0 -67 62 -67 85 0 26 23 59 94 133 121 127 282 218 416 236
75 9 241 -3 317 -24z m2080 -87 c-3 -10 -5 -4 -5 12 0 17 2 24 5 18 2 -7 2
-21 0 -30z m0 -375 c-1 -62 -3 -14 -3 107 0 121 2 172 3 113 2 -59 2 -158 0
-220z m-2072 266 c182 -52 386 -195 519 -364 145 -182 208 -304 380 -730 138
-342 222 -498 337 -632 36 -41 49 -65 49 -88 0 -55 -27 -50 -89 16 -123 131
-234 335 -376 689 -195 488 -311 680 -498 830 -237 190 -485 234 -687 123
-124 -69 -219 -176 -326 -367 -32 -56 -64 -105 -72 -108 -18 -7 -59 34 -67 67
-7 31 89 209 173 319 176 230 408 317 657 245z m9 -244 c253 -64 496 -288 643
-590 52 -106 66 -144 159 -407 41 -117 92 -254 115 -305 78 -179 177 -323 266
-390 52 -40 68 -67 61 -105 -2 -10 -13 -19 -25 -21 -33 -5 -194 162 -261 271
-75 120 -159 311 -232 522 -145 420 -225 571 -378 717 -137 131 -286 198 -439
198 -214 -1 -359 -123 -522 -441 -55 -106 -88 -159 -99 -159 -26 0 -62 41 -62
71 0 16 22 74 48 131 141 300 300 467 488 512 83 20 149 19 238 -4z m-4 -211
c158 -34 370 -205 498 -402 145 -224 227 -537 201 -768 -16 -139 -87 -304
-171 -395 -21 -22 -38 -43 -38 -46 0 -3 34 -8 75 -11 41 -4 100 -16 131 -26
155 -55 404 -266 404 -342 0 -55 -26 -46 -113 38 -154 148 -278 212 -412 213
-27 0 -57 6 -66 13 -26 20 -41 57 -35 83 6 22 1 20 -48 -20 -147 -119 -370
-169 -591 -131 -135 23 -201 49 -220 85 -37 71 -15 83 98 53 128 -34 318 -36
430 -5 165 46 320 177 395 334 54 113 67 173 66 308 -1 234 -74 446 -221 638
-167 219 -420 325 -606 253 -159 -62 -263 -211 -368 -534 -51 -153 -53 -158
-78 -155 -19 2 -31 14 -45 41 l-18 39 51 158 c160 488 350 649 681 579z m21
-195 c180 -52 368 -240 454 -453 80 -196 89 -424 24 -579 -60 -140 -194 -261
-363 -325 -77 -30 -88 -31 -231 -32 -244 0 -365 41 -365 124 0 38 13 39 135
11 97 -24 239 -28 323 -9 71 15 166 54 217 89 65 45 156 149 187 215 99 212
37 510 -145 701 -189 200 -409 204 -553 10 -53 -71 -72 -106 -163 -296 -63
-134 -136 -250 -156 -250 -7 0 -24 9 -39 21 -38 30 -34 69 14 145 22 34 77
140 124 236 86 177 160 287 228 341 78 62 201 83 309 51z m88 -259 c175 -89
289 -310 252 -488 -24 -110 -150 -264 -284 -345 -127 -77 -306 -113 -466 -94
-107 13 -128 23 -147 67 -24 58 -13 67 70 58 277 -31 507 54 654 242 57 73 74
111 80 181 12 160 -111 298 -267 297 -141 0 -206 -69 -354 -373 -75 -155 -155
-271 -191 -278 -22 -5 -62 32 -70 64 -5 20 3 36 44 82 37 41 76 107 140 237
127 256 178 322 288 366 69 28 179 21 251 -16z m-50 -149 c39 -20 90 -81 114
-135 71 -162 -96 -426 -290 -457 -32 -5 -42 -2 -61 19 -27 29 -33 75 -12 88 8
5 41 18 72 30 36 12 74 37 102 64 103 100 143 263 69 281 -80 21 -224 -146
-280 -323 -28 -90 -40 -99 -80 -61 -79 74 64 377 226 480 50 31 97 36 140 14z
m723 -483 c8 -10 28 -52 43 -93 65 -175 156 -322 285 -463 61 -67 80 -94 80
-116 0 -53 -27 -46 -102 26 -134 130 -256 316 -332 509 -43 110 -47 154 -13
154 13 0 31 -8 39 -17z m-2014 -187 c45 -40 47 -51 52 -316 l5 -255 230 -133
c127 -73 242 -145 258 -160 51 -49 58 -152 10 -152 -10 0 -160 82 -333 183
l-315 182 -3 322 c-2 311 -2 323 18 343 22 22 42 18 78 -14z m1978 -75 c60
-43 96 -89 92 -120 -6 -50 -43 -37 -139 51 -19 18 -29 36 -29 56 0 51 19 55
76 13z m8 -163 c110 -43 261 -166 354 -290 48 -62 57 -104 29 -122 -16 -9 -25
-4 -60 39 -115 140 -246 239 -357 272 -30 8 -61 20 -69 27 -24 19 -40 69 -30
89 12 21 53 16 133 -15z m1303 -430 c-1 -84 -3 -16 -3 152 0 168 2 236 3 153
2 -84 2 -222 0 -305z m-1493 177 c124 -32 320 -146 429 -247 37 -35 47 -51 47
-77 0 -49 -23 -49 -86 0 -205 162 -341 220 -516 220 -93 0 -98 1 -117 26 -23
29 -27 63 -9 81 17 17 181 15 252 -3z m-522 -79 c92 -18 230 -67 329 -117 164
-82 413 -267 425 -316 7 -26 -3 -54 -22 -60 -6 -2 -48 27 -94 64 -114 91 -207
152 -315 206 -168 84 -284 115 -445 120 -47 2 -92 7 -99 11 -19 12 -42 72 -35
90 8 21 152 22 256 2z m460 -60 c129 -48 317 -159 394 -231 37 -35 48 -90 20
-101 -8 -3 -51 20 -95 51 -103 72 -206 129 -304 167 -79 30 -107 58 -107 106
0 39 10 39 92 8z m-312 -128 c101 -24 277 -127 370 -216 42 -41 51 -55 48 -78
-5 -43 -33 -42 -86 3 -90 75 -218 151 -282 167 -14 4 9 -11 51 -33 103 -54
144 -108 105 -140 -17 -14 -177 58 -200 91 -19 27 -21 74 -3 85 15 9 -48 22
-120 22 -43 1 -55 5 -72 27 -21 26 -28 74 -13 88 8 10 139 -1 202 -16z m1867
-570 c-1 -90 -3 -19 -3 157 0 176 2 249 3 163 2 -86 2 -230 0 -320z m0 -220
c-3 -8 -6 -5 -6 6 -1 11 2 17 5 13 3 -3 4 -12 1 -19z m-470 -75 c50 -32 53
-56 53 -407 0 -179 -3 -326 -6 -326 -12 0 -600 344 -622 364 -62 55 -72 156
-17 156 13 0 124 -58 247 -130 123 -71 231 -132 241 -136 16 -6 17 12 17 239
0 221 2 247 17 255 18 11 35 7 70 -15z"/>
<path d="M8015 12614 c-58 -21 -63 -32 -19 -39 144 -24 205 -67 258 -178 69
-148 91 -290 83 -536 -6 -167 -28 -319 -67 -450 -9 -33 -5 -43 61 -164 l70
-128 -50 -77 c-28 -42 -71 -110 -96 -150 -54 -84 -57 -62 35 -287 32 -77 68
-170 81 -207 13 -38 27 -68 30 -68 10 0 436 573 461 620 20 38 23 59 22 140
l0 95 -106 276 c-59 151 -116 304 -128 340 -38 111 -139 360 -187 458 -144
293 -293 412 -448 355z"/>
<path d="M15834 11140 c-17 -4 -70 -29 -117 -56 l-87 -49 54 -6 c65 -7 -22 41
945 -522 715 -416 800 -469 860 -528 41 -40 80 -92 103 -135 70 -133 69 -116
67 -871 0 -373 -4 -800 -7 -950 -7 -266 -8 -272 -31 -304 l-24 -32 59 33 c146
83 168 106 183 187 5 26 10 460 12 963 l4 915 -28 80 c-35 101 -100 198 -172
256 -43 35 -1475 878 -1685 992 -53 29 -93 37 -136 27z"/>
<path d="M8404 10039 c-34 -38 -177 -139 -259 -184 -346 -189 -797 -247 -1232
-160 -126 26 -234 60 -315 101 l-48 24 -4 -22 c-3 -13 -10 -124 -16 -248 -5
-124 -12 -261 -15 -305 -17 -274 -25 -1022 -15 -1485 14 -656 20 -753 79
-1265 78 -669 151 -1412 167 -1700 4 -66 12 -126 18 -134 6 -8 34 -25 61 -37
84 -40 235 -30 353 22 28 12 52 25 52 27 0 63 77 726 105 902 57 359 69 496
69 775 1 264 0 280 -27 405 -15 72 -39 167 -53 211 l-25 82 60 568 c34 313 72
679 86 814 14 135 29 258 33 275 5 18 17 -135 30 -390 54 -1004 42 -874 172
-1859 66 -500 119 -910 117 -912 -1 -1 -42 17 -91 42 -71 35 -98 44 -140 44
-99 0 -161 -68 -161 -175 0 -93 29 -139 185 -300 75 -77 167 -180 205 -230
138 -181 221 -245 317 -245 47 0 116 37 135 74 20 35 23 129 10 269 l-9 88
-41 -44 c-54 -57 -99 -80 -162 -80 -83 -2 -133 31 -297 193 -169 167 -183 193
-147 266 26 56 59 76 134 82 l62 5 6 -34 c4 -19 11 -74 17 -124 15 -123 19
-129 87 -155 47 -18 71 -21 128 -17 66 5 156 27 181 44 7 5 19 82 28 178 10
94 37 319 61 500 70 525 78 629 72 880 -6 279 -37 459 -123 730 l-26 80 50
255 c139 699 195 1173 196 1655 0 220 -3 306 -17 400 -10 66 -22 123 -26 128
-4 4 -16 -2 -27 -14z"/>
<path d="M14964 7728 c-22 -13 -64 -36 -94 -53 l-53 -30 49 -6 c27 -4 63 -13
80 -20 16 -8 466 -268 1000 -579 915 -534 973 -569 1039 -636 86 -86 141 -190
160 -303 10 -60 12 -265 6 -986 l-6 -910 -23 -44 -23 -43 33 20 c18 11 60 35
93 54 49 27 65 42 86 84 l26 52 7 918 c7 826 6 926 -8 988 -32 136 -102 249
-204 328 -31 24 -187 120 -347 213 -159 92 -348 203 -420 245 -348 206 -1191
694 -1228 710 -57 27 -123 25 -173 -2z"/>
<path d="M7174 4379 c-67 -97 -202 -191 -339 -237 -120 -40 -306 -74 -441 -79
-73 -3 -143 -3 -157 1 -67 16 -114 96 -87 146 6 12 10 23 8 25 -5 6 -137 -30
-179 -49 -76 -32 -116 -117 -87 -180 21 -44 80 -82 179 -115 211 -72 408 -61
655 37 139 55 183 63 319 60 142 -3 172 8 206 74 18 35 20 53 16 103 -5 53
-50 241 -60 251 -2 3 -17 -14 -33 -37z"/>
</g>
</svg>
