<svg width="112" height="26" viewBox="0 0 112 26" fill="none" xmlns="http://www.w3.org/2000/svg">
<path d="M6.48 20.3241C4.716 20.3241 3.312 19.8291 2.268 18.8391C1.242 17.8491 0.729004 16.4541 0.729004 14.6541H3.591C3.591 15.5541 3.807 16.3011 4.239 16.8951C4.689 17.4891 5.418 17.7861 6.426 17.7861C7.416 17.7861 8.118 17.5071 8.532 16.9491C8.946 16.3731 9.153 15.6441 9.153 14.7621V1.10006H12.015V14.7621C12.015 16.5441 11.52 17.9211 10.53 18.8931C9.54 19.8471 8.19 20.3241 6.48 20.3241Z" fill="#fff"/>
<path d="M6.48 20.3241C4.716 20.3241 3.312 19.8291 2.268 18.8391C1.242 17.8491 0.729004 16.4541 0.729004 14.6541H3.591C3.591 15.5541 3.807 16.3011 4.239 16.8951C4.689 17.4891 5.418 17.7861 6.426 17.7861C7.416 17.7861 8.118 17.5071 8.532 16.9491C8.946 16.3731 9.153 15.6441 9.153 14.7621V1.10006H12.015V14.7621C12.015 16.5441 11.52 17.9211 10.53 18.8931C9.54 19.8471 8.19 20.3241 6.48 20.3241Z" fill="white" fill-opacity="0.2"/>
<path d="M19.4569 20.3241C18.3229 20.3241 17.3869 20.1351 16.6489 19.7571C15.9109 19.3791 15.3619 18.8841 15.0019 18.2721C14.6419 17.6421 14.4619 16.9581 14.4619 16.2201C14.4619 14.9241 14.9659 13.8981 15.9739 13.1421C16.9819 12.3861 18.4219 12.0081 20.2939 12.0081H23.8039V11.7651C23.8039 10.7211 23.5159 9.93806 22.9399 9.41606C22.3819 8.89406 21.6529 8.63306 20.7529 8.63306C19.9609 8.63306 19.2679 8.83106 18.6739 9.22706C18.0979 9.60506 17.7469 10.1721 17.6209 10.9281H14.7589C14.8489 9.95606 15.1729 9.12806 15.7309 8.44406C16.3069 7.74206 17.0269 7.21106 17.8909 6.85106C18.7729 6.47306 19.7359 6.28406 20.7799 6.28406C22.6519 6.28406 24.1009 6.77906 25.1269 7.76906C26.1529 8.74106 26.6659 10.0731 26.6659 11.7651V20.0001H24.1819L23.9389 17.7051C23.5609 18.4431 23.0119 19.0641 22.2919 19.5681C21.5719 20.0721 20.6269 20.3241 19.4569 20.3241ZM20.0239 18.0021C20.7979 18.0021 21.4459 17.8221 21.9679 17.4621C22.5079 17.0841 22.9219 16.5891 23.2099 15.9771C23.5159 15.3651 23.7049 14.6901 23.7769 13.9521H20.5909C19.4569 13.9521 18.6469 14.1501 18.1609 14.5461C17.6929 14.9421 17.4589 15.4371 17.4589 16.0311C17.4589 16.6431 17.6839 17.1291 18.1339 17.4891C18.6019 17.8311 19.2319 18.0021 20.0239 18.0021Z" fill="#fff"/>
<path d="M19.4569 20.3241C18.3229 20.3241 17.3869 20.1351 16.6489 19.7571C15.9109 19.3791 15.3619 18.8841 15.0019 18.2721C14.6419 17.6421 14.4619 16.9581 14.4619 16.2201C14.4619 14.9241 14.9659 13.8981 15.9739 13.1421C16.9819 12.3861 18.4219 12.0081 20.2939 12.0081H23.8039V11.7651C23.8039 10.7211 23.5159 9.93806 22.9399 9.41606C22.3819 8.89406 21.6529 8.63306 20.7529 8.63306C19.9609 8.63306 19.2679 8.83106 18.6739 9.22706C18.0979 9.60506 17.7469 10.1721 17.6209 10.9281H14.7589C14.8489 9.95606 15.1729 9.12806 15.7309 8.44406C16.3069 7.74206 17.0269 7.21106 17.8909 6.85106C18.7729 6.47306 19.7359 6.28406 20.7799 6.28406C22.6519 6.28406 24.1009 6.77906 25.1269 7.76906C26.1529 8.74106 26.6659 10.0731 26.6659 11.7651V20.0001H24.1819L23.9389 17.7051C23.5609 18.4431 23.0119 19.0641 22.2919 19.5681C21.5719 20.0721 20.6269 20.3241 19.4569 20.3241ZM20.0239 18.0021C20.7979 18.0021 21.4459 17.8221 21.9679 17.4621C22.5079 17.0841 22.9219 16.5891 23.2099 15.9771C23.5159 15.3651 23.7049 14.6901 23.7769 13.9521H20.5909C19.4569 13.9521 18.6469 14.1501 18.1609 14.5461C17.6929 14.9421 17.4589 15.4371 17.4589 16.0311C17.4589 16.6431 17.6839 17.1291 18.1339 17.4891C18.6019 17.8311 19.2319 18.0021 20.0239 18.0021Z" fill="white" fill-opacity="1"/>
<path d="M29.1929 20.0001V6.60806H31.7309L31.9739 8.49806C32.4059 7.81406 32.9729 7.27406 33.6749 6.87806C34.3949 6.48206 35.2229 6.28406 36.1589 6.28406C38.2829 6.28406 39.7589 7.12106 40.5869 8.79506C41.0729 8.02106 41.7209 7.40906 42.5309 6.95906C43.3589 6.50906 44.2499 6.28406 45.2039 6.28406C46.8779 6.28406 48.1919 6.78806 49.1459 7.79606C50.0999 8.80406 50.5769 10.3071 50.5769 12.3051V20.0001H47.7149V12.6021C47.7149 10.0101 46.7249 8.71406 44.7449 8.71406C43.7369 8.71406 42.9089 9.09206 42.2609 9.84806C41.6309 10.6041 41.3159 11.6841 41.3159 13.0881V20.0001H38.4539V12.6021C38.4539 10.0101 37.4549 8.71406 35.4569 8.71406C34.4669 8.71406 33.6479 9.09206 32.9999 9.84806C32.3699 10.6041 32.0549 11.6841 32.0549 13.0881V20.0001H29.1929Z" fill="#fff"/>
<path d="M29.1929 20.0001V6.60806H31.7309L31.9739 8.49806C32.4059 7.81406 32.9729 7.27406 33.6749 6.87806C34.3949 6.48206 35.2229 6.28406 36.1589 6.28406C38.2829 6.28406 39.7589 7.12106 40.5869 8.79506C41.0729 8.02106 41.7209 7.40906 42.5309 6.95906C43.3589 6.50906 44.2499 6.28406 45.2039 6.28406C46.8779 6.28406 48.1919 6.78806 49.1459 7.79606C50.0999 8.80406 50.5769 10.3071 50.5769 12.3051V20.0001H47.7149V12.6021C47.7149 10.0101 46.7249 8.71406 44.7449 8.71406C43.7369 8.71406 42.9089 9.09206 42.2609 9.84806C41.6309 10.6041 41.3159 11.6841 41.3159 13.0881V20.0001H38.4539V12.6021C38.4539 10.0101 37.4549 8.71406 35.4569 8.71406C34.4669 8.71406 33.6479 9.09206 32.9999 9.84806C32.3699 10.6041 32.0549 11.6841 32.0549 13.0881V20.0001H29.1929Z" fill="white" fill-opacity="0.2"/>
<path d="M53.1153 25.9401V6.60806H55.6803L55.9773 8.68706C56.4093 8.05706 57.0033 7.49906 57.7593 7.01306C58.5153 6.52706 59.4873 6.28406 60.6753 6.28406C61.9713 6.28406 63.1143 6.59006 64.1043 7.20206C65.0943 7.81406 65.8683 8.65106 66.4263 9.71306C67.0023 10.7751 67.2903 11.9811 67.2903 13.3311C67.2903 14.6811 67.0023 15.8871 66.4263 16.9491C65.8683 17.9931 65.0943 18.8211 64.1043 19.4331C63.1143 20.0271 61.9623 20.3241 60.6483 20.3241C59.6043 20.3241 58.6773 20.1171 57.8673 19.7031C57.0753 19.2891 56.4453 18.7041 55.9773 17.9481V25.9401H53.1153ZM60.1623 17.8401C61.3863 17.8401 62.3943 17.4261 63.1863 16.5981C63.9783 15.7521 64.3743 14.6541 64.3743 13.3041C64.3743 12.4221 64.1943 11.6391 63.8343 10.9551C63.4743 10.2711 62.9793 9.74006 62.3493 9.36206C61.7193 8.96606 60.9903 8.76806 60.1623 8.76806C58.9383 8.76806 57.9303 9.19106 57.1383 10.0371C56.3643 10.8831 55.9773 11.9721 55.9773 13.3041C55.9773 14.6541 56.3643 15.7521 57.1383 16.5981C57.9303 17.4261 58.9383 17.8401 60.1623 17.8401Z" fill="#fff"/>
<path d="M53.1153 25.9401V6.60806H55.6803L55.9773 8.68706C56.4093 8.05706 57.0033 7.49906 57.7593 7.01306C58.5153 6.52706 59.4873 6.28406 60.6753 6.28406C61.9713 6.28406 63.1143 6.59006 64.1043 7.20206C65.0943 7.81406 65.8683 8.65106 66.4263 9.71306C67.0023 10.7751 67.2903 11.9811 67.2903 13.3311C67.2903 14.6811 67.0023 15.8871 66.4263 16.9491C65.8683 17.9931 65.0943 18.8211 64.1043 19.4331C63.1143 20.0271 61.9623 20.3241 60.6483 20.3241C59.6043 20.3241 58.6773 20.1171 57.8673 19.7031C57.0753 19.2891 56.4453 18.7041 55.9773 17.9481V25.9401H53.1153ZM60.1623 17.8401C61.3863 17.8401 62.3943 17.4261 63.1863 16.5981C63.9783 15.7521 64.3743 14.6541 64.3743 13.3041C64.3743 12.4221 64.1943 11.6391 63.8343 10.9551C63.4743 10.2711 62.9793 9.74006 62.3493 9.36206C61.7193 8.96606 60.9903 8.76806 60.1623 8.76806C58.9383 8.76806 57.9303 9.19106 57.1383 10.0371C56.3643 10.8831 55.9773 11.9721 55.9773 13.3041C55.9773 14.6541 56.3643 15.7521 57.1383 16.5981C57.9303 17.4261 58.9383 17.8401 60.1623 17.8401Z" fill="white" fill-opacity="0.2"/>
<path d="M74.1118 20.3241C72.9778 20.3241 72.0418 20.1351 71.3038 19.7571C70.5658 19.3791 70.0168 18.8841 69.6568 18.2721C69.2968 17.6421 69.1168 16.9581 69.1168 16.2201C69.1168 14.9241 69.6208 13.8981 70.6288 13.1421C71.6368 12.3861 73.0768 12.0081 74.9488 12.0081H78.4588V11.7651C78.4588 10.7211 78.1708 9.93806 77.5948 9.41606C77.0368 8.89406 76.3078 8.63306 75.4078 8.63306C74.6158 8.63306 73.9228 8.83106 73.3288 9.22706C72.7528 9.60506 72.4018 10.1721 72.2758 10.9281H69.4138C69.5038 9.95606 69.8278 9.12806 70.3858 8.44406C70.9618 7.74206 71.6818 7.21106 72.5458 6.85106C73.4278 6.47306 74.3908 6.28406 75.4348 6.28406C77.3068 6.28406 78.7558 6.77906 79.7818 7.76906C80.8078 8.74106 81.3208 10.0731 81.3208 11.7651V20.0001H78.8368L78.5938 17.7051C78.2158 18.4431 77.6668 19.0641 76.9468 19.5681C76.2268 20.0721 75.2818 20.3241 74.1118 20.3241ZM74.6788 18.0021C75.4528 18.0021 76.1008 17.8221 76.6228 17.4621C77.1628 17.0841 77.5768 16.5891 77.8648 15.9771C78.1708 15.3651 78.3598 14.6901 78.4318 13.9521H75.2458C74.1118 13.9521 73.3018 14.1501 72.8158 14.5461C72.3478 14.9421 72.1138 15.4371 72.1138 16.0311C72.1138 16.6431 72.3388 17.1291 72.7888 17.4891C73.2568 17.8311 73.8868 18.0021 74.6788 18.0021Z" fill="#fff"/>
<path d="M74.1118 20.3241C72.9778 20.3241 72.0418 20.1351 71.3038 19.7571C70.5658 19.3791 70.0168 18.8841 69.6568 18.2721C69.2968 17.6421 69.1168 16.9581 69.1168 16.2201C69.1168 14.9241 69.6208 13.8981 70.6288 13.1421C71.6368 12.3861 73.0768 12.0081 74.9488 12.0081H78.4588V11.7651C78.4588 10.7211 78.1708 9.93806 77.5948 9.41606C77.0368 8.89406 76.3078 8.63306 75.4078 8.63306C74.6158 8.63306 73.9228 8.83106 73.3288 9.22706C72.7528 9.60506 72.4018 10.1721 72.2758 10.9281H69.4138C69.5038 9.95606 69.8278 9.12806 70.3858 8.44406C70.9618 7.74206 71.6818 7.21106 72.5458 6.85106C73.4278 6.47306 74.3908 6.28406 75.4348 6.28406C77.3068 6.28406 78.7558 6.77906 79.7818 7.76906C80.8078 8.74106 81.3208 10.0731 81.3208 11.7651V20.0001H78.8368L78.5938 17.7051C78.2158 18.4431 77.6668 19.0641 76.9468 19.5681C76.2268 20.0721 75.2818 20.3241 74.1118 20.3241ZM74.6788 18.0021C75.4528 18.0021 76.1008 17.8221 76.6228 17.4621C77.1628 17.0841 77.5768 16.5891 77.8648 15.9771C78.1708 15.3651 78.3598 14.6901 78.4318 13.9521H75.2458C74.1118 13.9521 73.3018 14.1501 72.8158 14.5461C72.3478 14.9421 72.1138 15.4371 72.1138 16.0311C72.1138 16.6431 72.3388 17.1291 72.7888 17.4891C73.2568 17.8311 73.8868 18.0021 74.6788 18.0021Z" fill="white" fill-opacity="1"/>
<path d="M90.1929 20.3241C88.8789 20.3241 87.6999 20.0271 86.6559 19.4331C85.6299 18.8391 84.8199 18.0201 84.2259 16.9761C83.6499 15.9141 83.3619 14.6901 83.3619 13.3041C83.3619 11.9181 83.6499 10.7031 84.2259 9.65906C84.8199 8.59706 85.6299 7.76906 86.6559 7.17506C87.6999 6.58106 88.8789 6.28406 90.1929 6.28406C91.8489 6.28406 93.2349 6.71606 94.3509 7.58006C95.4849 8.44406 96.2139 9.61406 96.5379 11.0901H93.5409C93.3609 10.3521 92.9649 9.77606 92.3529 9.36206C91.7409 8.94806 91.0209 8.74106 90.1929 8.74106C89.4909 8.74106 88.8429 8.92106 88.2489 9.28106C87.6549 9.62306 87.1779 10.1361 86.8179 10.8201C86.4579 11.4861 86.2779 12.3141 86.2779 13.3041C86.2779 14.2941 86.4579 15.1311 86.8179 15.8151C87.1779 16.4811 87.6549 16.9941 88.2489 17.3541C88.8429 17.7141 89.4909 17.8941 90.1929 17.8941C91.0209 17.8941 91.7409 17.6871 92.3529 17.2731C92.9649 16.8591 93.3609 16.2741 93.5409 15.5181H96.5379C96.2319 16.9581 95.5119 18.1191 94.3779 19.0011C93.2439 19.8831 91.8489 20.3241 90.1929 20.3241Z" fill="#fff"/>
<path d="M90.1929 20.3241C88.8789 20.3241 87.6999 20.0271 86.6559 19.4331C85.6299 18.8391 84.8199 18.0201 84.2259 16.9761C83.6499 15.9141 83.3619 14.6901 83.3619 13.3041C83.3619 11.9181 83.6499 10.7031 84.2259 9.65906C84.8199 8.59706 85.6299 7.76906 86.6559 7.17506C87.6999 6.58106 88.8789 6.28406 90.1929 6.28406C91.8489 6.28406 93.2349 6.71606 94.3509 7.58006C95.4849 8.44406 96.2139 9.61406 96.5379 11.0901H93.5409C93.3609 10.3521 92.9649 9.77606 92.3529 9.36206C91.7409 8.94806 91.0209 8.74106 90.1929 8.74106C89.4909 8.74106 88.8429 8.92106 88.2489 9.28106C87.6549 9.62306 87.1779 10.1361 86.8179 10.8201C86.4579 11.4861 86.2779 12.3141 86.2779 13.3041C86.2779 14.2941 86.4579 15.1311 86.8179 15.8151C87.1779 16.4811 87.6549 16.9941 88.2489 17.3541C88.8429 17.7141 89.4909 17.8941 90.1929 17.8941C91.0209 17.8941 91.7409 17.6871 92.3529 17.2731C92.9649 16.8591 93.3609 16.2741 93.5409 15.5181H96.5379C96.2319 16.9581 95.5119 18.1191 94.3779 19.0011C93.2439 19.8831 91.8489 20.3241 90.1929 20.3241Z" fill="white" fill-opacity="0.2"/>
<path d="M98.8318 20.0001V0.560059H101.694V12.1431L106.824 6.60806H110.253L104.556 12.6831L111.09 20.0001H107.472L101.694 13.1421V20.0001H98.8318Z" fill="#fff"/>
<path d="M98.8318 20.0001V0.560059H101.694V12.1431L106.824 6.60806H110.253L104.556 12.6831L111.09 20.0001H107.472L101.694 13.1421V20.0001H98.8318Z" fill="white" fill-opacity="0.2"/>
</svg>
