<svg width="167" height="36" viewBox="0 0 167 36" fill="none" xmlns="http://www.w3.org/2000/svg">
<path d="M18 36C8.05887 36 -1.22135e-06 27.9411 -7.86805e-07 18C-3.52265e-07 8.05887 8.05887 -1.22135e-06 18 -7.86805e-07C27.9411 -3.52265e-07 36 8.05887 36 18C36 27.9411 27.9411 36 18 36ZM18 8.59219C12.8042 8.59219 8.59219 12.8042 8.59219 18C8.59219 23.1958 12.8042 27.4078 18 27.4078C23.1958 27.4078 27.4078 23.1958 27.4078 18C27.4078 12.8042 23.1958 8.59219 18 8.59219Z" fill="url(#paint0_linear_211_45)"/>
<path d="M18 2.14648e-07C20.8626 2.48784e-07 23.6839 0.68274 26.2298 1.99155C28.7757 3.30037 30.9727 5.19751 32.6385 7.52552C34.3043 9.85353 35.3908 12.5453 35.8079 15.3773C36.225 18.2094 35.9606 21.1001 35.0367 23.8095C34.1128 26.5189 32.556 28.9689 30.4956 30.9561C28.4351 32.9433 25.9305 34.4104 23.1894 35.2357C20.4483 36.061 17.55 36.2206 14.7349 35.7014C11.9198 35.1821 9.26908 33.9989 7.00286 32.25L12.2581 25.4403C13.4414 26.3535 14.8253 26.9712 16.2952 27.2423C17.765 27.5135 19.2783 27.4301 20.7095 26.9992C22.1407 26.5683 23.4485 25.8023 24.5243 24.7647C25.6001 23.7271 26.4129 22.4479 26.8953 21.0333C27.3777 19.6186 27.5157 18.1093 27.298 16.6306C27.0802 15.1519 26.5129 13.7465 25.6431 12.531C24.7734 11.3155 23.6263 10.3249 22.297 9.64158C20.9677 8.95821 19.4946 8.60174 18 8.60174L18 2.14648e-07Z" fill="url(#paint1_linear_211_45)"/>
<path d="M45.5937 26.2735L45.5946 26.2744C46.7803 27.3987 48.3693 27.9538 50.3446 27.9538C52.26 27.9538 53.7902 27.4187 54.9168 26.3331L54.9178 26.3322C56.0463 25.2242 56.601 23.6619 56.601 21.6677V6.59546V6.44546H56.451H53.2935H53.1435V6.59546V21.6677C53.1435 22.6166 52.9212 23.3878 52.4873 23.992C52.0694 24.5545 51.3505 24.8539 50.2851 24.8539C49.2028 24.8539 48.4517 24.5364 47.9928 23.9315C47.5392 23.3073 47.3074 22.5164 47.3074 21.5486V21.3986H47.1574H44H43.85V21.5486C43.85 23.5638 44.4252 25.146 45.5937 26.2735Z" fill="#2F343A" stroke="#2F343A" stroke-width="0.3"/>
<path d="M45.5937 26.2735L45.5946 26.2744C46.7803 27.3987 48.3693 27.9538 50.3446 27.9538C52.26 27.9538 53.7902 27.4187 54.9168 26.3331L54.9178 26.3322C56.0463 25.2242 56.601 23.6619 56.601 21.6677V6.59546V6.44546H56.451H53.2935H53.1435V6.59546V21.6677C53.1435 22.6166 52.9212 23.3878 52.4873 23.992C52.0694 24.5545 51.3505 24.8539 50.2851 24.8539C49.2028 24.8539 48.4517 24.5364 47.9928 23.9315C47.5392 23.3073 47.3074 22.5164 47.3074 21.5486V21.3986H47.1574H44H43.85V21.5486C43.85 23.5638 44.4252 25.146 45.5937 26.2735Z" fill="#2F343A" stroke="#2F343A" stroke-width="0.3"/>
<path d="M59.6154 25.6151L59.6154 25.6151L59.6164 25.6167C60.0302 26.3203 60.6591 26.8847 61.4943 27.3124C62.3359 27.7435 63.394 27.9545 64.6605 27.9545C65.972 27.9545 67.0475 27.672 67.8741 27.0933C68.5501 26.6201 69.0944 26.0542 69.5052 25.3957L69.7241 27.4628L69.7383 27.597H69.8732H72.6136H72.7636V27.447V18.362C72.7636 16.4632 72.1867 14.9512 71.0194 13.845C69.8517 12.7186 68.2113 12.1652 66.1201 12.1652C64.9501 12.1652 63.8676 12.377 62.8745 12.8025C61.8996 13.2088 61.0853 13.8091 60.4339 14.603L60.4337 14.6033C59.7972 15.3835 59.4299 16.326 59.3282 17.4248L59.313 17.5886H59.4776H62.635H62.762L62.7829 17.4633C62.9159 16.6653 63.2826 16.0787 63.879 15.6874L63.879 15.6874L63.8799 15.6868C64.5079 15.2681 65.2428 15.0567 66.0903 15.0567C67.0523 15.0567 67.8176 15.3347 68.4005 15.88L68.4005 15.88L68.4023 15.8816C68.9966 16.4203 69.3062 17.2374 69.3062 18.362V18.4801H65.5839C63.5012 18.4801 61.8759 18.9002 60.728 19.7611C59.5769 20.6244 58.9999 21.8014 58.9999 23.2768C58.9999 24.1167 59.2051 24.897 59.6154 25.6151ZM68.6667 22.9417L68.6667 22.9417L68.6652 22.9449C68.3583 23.5969 67.9186 24.1223 67.3451 24.5239C66.7994 24.9001 66.1161 25.0928 65.286 25.0928C64.4342 25.0928 63.7746 24.9091 63.2921 24.5576C62.8354 24.1911 62.6063 23.7 62.6063 23.0683C62.6063 22.4592 62.8434 21.9547 63.3265 21.5455C63.8217 21.1427 64.6712 20.9247 65.9115 20.9247H69.2592C69.1705 21.6579 68.9727 22.3298 68.6667 22.9417Z" fill="#2F343A" stroke="#2F343A" stroke-width="0.3"/>
<path d="M59.6154 25.6151L59.6154 25.6151L59.6164 25.6167C60.0302 26.3203 60.6591 26.8847 61.4943 27.3124C62.3359 27.7435 63.394 27.9545 64.6605 27.9545C65.972 27.9545 67.0475 27.672 67.8741 27.0933C68.5501 26.6201 69.0944 26.0542 69.5052 25.3957L69.7241 27.4628L69.7383 27.597H69.8732H72.6136H72.7636V27.447V18.362C72.7636 16.4632 72.1867 14.9512 71.0194 13.845C69.8517 12.7186 68.2113 12.1652 66.1201 12.1652C64.9501 12.1652 63.8676 12.377 62.8745 12.8025C61.8996 13.2088 61.0853 13.8091 60.4339 14.603L60.4337 14.6033C59.7972 15.3835 59.4299 16.326 59.3282 17.4248L59.313 17.5886H59.4776H62.635H62.762L62.7829 17.4633C62.9159 16.6653 63.2826 16.0787 63.879 15.6874L63.879 15.6874L63.8799 15.6868C64.5079 15.2681 65.2428 15.0567 66.0903 15.0567C67.0523 15.0567 67.8176 15.3347 68.4005 15.88L68.4005 15.88L68.4023 15.8816C68.9966 16.4203 69.3062 17.2374 69.3062 18.362V18.4801H65.5839C63.5012 18.4801 61.8759 18.9002 60.728 19.7611C59.5769 20.6244 58.9999 21.8014 58.9999 23.2768C58.9999 24.1167 59.2051 24.897 59.6154 25.6151ZM68.6667 22.9417L68.6667 22.9417L68.6652 22.9449C68.3583 23.5969 67.9186 24.1223 67.3451 24.5239C66.7994 24.9001 66.1161 25.0928 65.286 25.0928C64.4342 25.0928 63.7746 24.9091 63.2921 24.5576C62.8354 24.1911 62.6063 23.7 62.6063 23.0683C62.6063 22.4592 62.8434 21.9547 63.3265 21.5455C63.8217 21.1427 64.6712 20.9247 65.9115 20.9247H69.2592C69.1705 21.6579 68.9727 22.3298 68.6667 22.9417Z" fill="#2F343A" stroke="#2F343A" stroke-width="0.3"/>
<path d="M75.2526 27.447V27.597H75.4026H78.56H78.71V27.447V19.8216C78.71 18.2935 79.0529 17.1415 79.7171 16.3439C80.4036 15.5434 81.2654 15.146 82.3132 15.146C83.3802 15.146 84.1578 15.4901 84.6741 16.1599C85.1962 16.8372 85.4695 17.8707 85.4695 19.2854V27.447V27.597H85.6195H88.7769H88.9269V27.447V19.8216C88.9269 18.2935 89.2698 17.1415 89.9341 16.3439C90.62 15.5441 91.4914 15.146 92.5599 15.146C93.6165 15.146 94.3866 15.4897 94.8981 16.1594C95.4155 16.8368 95.6865 17.8705 95.6865 19.2854V27.447V27.597H95.8365H98.9939H99.1439V27.447V18.9577C99.1439 16.7319 98.6126 15.0302 97.5241 13.8801C96.4376 12.7321 94.9451 12.1652 93.0663 12.1652C91.9891 12.1652 90.9815 12.4195 90.0457 12.9281L90.0445 12.9287C89.2057 13.3947 88.5196 14.0153 87.9876 14.7896C87.5293 13.9551 86.9138 13.3159 86.1403 12.8773C85.2986 12.3999 84.2788 12.1652 83.0876 12.1652C82.0333 12.1652 81.0943 12.3884 80.2749 12.8391L80.2749 12.8391L80.2735 12.8399C79.5941 13.2231 79.0256 13.7259 78.5691 14.3471L78.3513 12.6535L78.3345 12.5226H78.2026H75.4026H75.2526V12.6726V27.447Z" fill="#2F343A" stroke="#2F343A" stroke-width="0.3"/>
<path d="M75.2526 27.447V27.597H75.4026H78.56H78.71V27.447V19.8216C78.71 18.2935 79.0529 17.1415 79.7171 16.3439C80.4036 15.5434 81.2654 15.146 82.3132 15.146C83.3802 15.146 84.1578 15.4901 84.6741 16.1599C85.1962 16.8372 85.4695 17.8707 85.4695 19.2854V27.447V27.597H85.6195H88.7769H88.9269V27.447V19.8216C88.9269 18.2935 89.2698 17.1415 89.9341 16.3439C90.62 15.5441 91.4914 15.146 92.5599 15.146C93.6165 15.146 94.3866 15.4897 94.8981 16.1594C95.4155 16.8368 95.6865 17.8705 95.6865 19.2854V27.447V27.597H95.8365H98.9939H99.1439V27.447V18.9577C99.1439 16.7319 98.6126 15.0302 97.5241 13.8801C96.4376 12.7321 94.9451 12.1652 93.0663 12.1652C91.9891 12.1652 90.9815 12.4195 90.0457 12.9281L90.0445 12.9287C89.2057 13.3947 88.5196 14.0153 87.9876 14.7896C87.5293 13.9551 86.9138 13.3159 86.1403 12.8773C85.2986 12.3999 84.2788 12.1652 83.0876 12.1652C82.0333 12.1652 81.0943 12.3884 80.2749 12.8391L80.2749 12.8391L80.2735 12.8399C79.5941 13.2231 79.0256 13.7259 78.5691 14.3471L78.3513 12.6535L78.3345 12.5226H78.2026H75.4026H75.2526V12.6726V27.447Z" fill="#2F343A" stroke="#2F343A" stroke-width="0.3"/>
<path d="M101.643 34.0002V34.1502H101.793H104.95H105.1V34.0002V25.6704C105.594 26.3329 106.217 26.8605 106.966 27.2523L106.967 27.2529C107.885 27.722 108.932 27.9545 110.104 27.9545C111.577 27.9545 112.875 27.6213 113.993 26.9501L113.993 26.9501L113.995 26.9491C115.11 26.2598 115.982 25.3267 116.61 24.1522C117.259 22.9562 117.581 21.6008 117.581 20.0896C117.581 18.5787 117.259 17.2234 116.61 16.0275C115.983 14.8333 115.111 13.8899 113.995 13.2004C112.877 12.5089 111.588 12.1652 110.133 12.1652C108.803 12.1652 107.7 12.4373 106.835 12.9933C106.108 13.4607 105.511 13.9898 105.047 14.5814L104.771 12.6514L104.753 12.5226H104.623H101.793H101.643V12.6726V34.0002ZM111.9 15.8379L111.9 15.8379L111.903 15.8395C112.573 16.2417 113.101 16.8066 113.486 17.5382C113.87 18.2684 114.064 19.1077 114.064 20.0598C114.064 21.5175 113.638 22.6899 112.795 23.5908C111.951 24.4721 110.88 24.9141 109.567 24.9141C108.255 24.9141 107.184 24.4723 106.341 23.5914C105.517 22.6907 105.1 21.5181 105.1 20.0598C105.1 18.6217 105.517 17.4587 106.341 16.5575C107.185 15.6567 108.256 15.2056 109.567 15.2056C110.456 15.2056 111.232 15.4177 111.9 15.8379Z" fill="#2F343A" stroke="#2F343A" stroke-width="0.3"/>
<path d="M101.643 34.0002V34.1502H101.793H104.95H105.1V34.0002V25.6704C105.594 26.3329 106.217 26.8605 106.966 27.2523L106.967 27.2529C107.885 27.722 108.932 27.9545 110.104 27.9545C111.577 27.9545 112.875 27.6213 113.993 26.9501L113.993 26.9501L113.995 26.9491C115.11 26.2598 115.982 25.3267 116.61 24.1522C117.259 22.9562 117.581 21.6008 117.581 20.0896C117.581 18.5787 117.259 17.2234 116.61 16.0275C115.983 14.8333 115.111 13.8899 113.995 13.2004C112.877 12.5089 111.588 12.1652 110.133 12.1652C108.803 12.1652 107.7 12.4373 106.835 12.9933C106.108 13.4607 105.511 13.9898 105.047 14.5814L104.771 12.6514L104.753 12.5226H104.623H101.793H101.643V12.6726V34.0002ZM111.9 15.8379L111.9 15.8379L111.903 15.8395C112.573 16.2417 113.101 16.8066 113.486 17.5382C113.87 18.2684 114.064 19.1077 114.064 20.0598C114.064 21.5175 113.638 22.6899 112.795 23.5908C111.951 24.4721 110.88 24.9141 109.567 24.9141C108.255 24.9141 107.184 24.4723 106.341 23.5914C105.517 22.6907 105.1 21.5181 105.1 20.0598C105.1 18.6217 105.517 17.4587 106.341 16.5575C107.185 15.6567 108.256 15.2056 109.567 15.2056C110.456 15.2056 111.232 15.4177 111.9 15.8379Z" fill="#2F343A" stroke="#2F343A" stroke-width="0.3"/>
<path d="M119.913 25.6151L119.913 25.6151L119.913 25.6167C120.327 26.3203 120.956 26.8847 121.791 27.3124C122.633 27.7435 123.691 27.9545 124.958 27.9545C126.269 27.9545 127.345 27.672 128.171 27.0933C128.847 26.6201 129.392 26.0542 129.802 25.3957L130.021 27.4628L130.035 27.597H130.17H132.911H133.061V27.447V18.362C133.061 16.4632 132.484 14.9512 131.317 13.845C130.149 12.7186 128.508 12.1652 126.417 12.1652C125.247 12.1652 124.165 12.377 123.172 12.8025C122.197 13.2088 121.382 13.8091 120.731 14.603L120.731 14.6033C120.094 15.3835 119.727 16.326 119.625 17.4248L119.61 17.5886H119.775H122.932H123.059L123.08 17.4633C123.213 16.6653 123.58 16.0787 124.176 15.6874L124.176 15.6874L124.177 15.6868C124.805 15.2681 125.54 15.0567 126.387 15.0567C127.349 15.0567 128.115 15.3347 128.698 15.88L128.698 15.88L128.699 15.8816C129.294 16.4203 129.603 17.2374 129.603 18.362V18.4801H125.881C123.798 18.4801 122.173 18.9002 121.025 19.7611C119.874 20.6244 119.297 21.8014 119.297 23.2768C119.297 24.1167 119.502 24.897 119.913 25.6151ZM128.964 22.9417L128.964 22.9417L128.962 22.9449C128.655 23.5969 128.216 24.1223 127.642 24.5239C127.097 24.9001 126.413 25.0928 125.583 25.0928C124.731 25.0928 124.072 24.9091 123.589 24.5576C123.133 24.1911 122.903 23.7 122.903 23.0683C122.903 22.4592 123.141 21.9547 123.624 21.5455C124.119 21.1427 124.968 20.9247 126.209 20.9247H129.556C129.468 21.6579 129.27 22.3298 128.964 22.9417Z" fill="#2F343A" stroke="#2F343A" stroke-width="0.3"/>
<path d="M119.913 25.6151L119.913 25.6151L119.913 25.6167C120.327 26.3203 120.956 26.8847 121.791 27.3124C122.633 27.7435 123.691 27.9545 124.958 27.9545C126.269 27.9545 127.345 27.672 128.171 27.0933C128.847 26.6201 129.392 26.0542 129.802 25.3957L130.021 27.4628L130.035 27.597H130.17H132.911H133.061V27.447V18.362C133.061 16.4632 132.484 14.9512 131.317 13.845C130.149 12.7186 128.508 12.1652 126.417 12.1652C125.247 12.1652 124.165 12.377 123.172 12.8025C122.197 13.2088 121.382 13.8091 120.731 14.603L120.731 14.6033C120.094 15.3835 119.727 16.326 119.625 17.4248L119.61 17.5886H119.775H122.932H123.059L123.08 17.4633C123.213 16.6653 123.58 16.0787 124.176 15.6874L124.176 15.6874L124.177 15.6868C124.805 15.2681 125.54 15.0567 126.387 15.0567C127.349 15.0567 128.115 15.3347 128.698 15.88L128.698 15.88L128.699 15.8816C129.294 16.4203 129.603 17.2374 129.603 18.362V18.4801H125.881C123.798 18.4801 122.173 18.9002 121.025 19.7611C119.874 20.6244 119.297 21.8014 119.297 23.2768C119.297 24.1167 119.502 24.897 119.913 25.6151ZM128.964 22.9417L128.964 22.9417L128.962 22.9449C128.655 23.5969 128.216 24.1223 127.642 24.5239C127.097 24.9001 126.413 25.0928 125.583 25.0928C124.731 25.0928 124.072 24.9091 123.589 24.5576C123.133 24.1911 122.903 23.7 122.903 23.0683C122.903 22.4592 123.141 21.9547 123.624 21.5455C124.119 21.1427 124.968 20.9247 126.209 20.9247H129.556C129.468 21.6579 129.27 22.3298 128.964 22.9417Z" fill="#2F343A" stroke="#2F343A" stroke-width="0.3"/>
<path d="M138.722 26.9513L138.723 26.9519C139.899 27.6212 141.226 27.9545 142.699 27.9545C144.554 27.9545 146.127 27.4599 147.408 26.4633C148.688 25.468 149.501 24.1559 149.846 22.5336L149.884 22.3524H149.699H146.393H146.274L146.247 22.4676C146.056 23.2672 145.64 23.8798 144.998 24.3143C144.35 24.7523 143.586 24.9736 142.699 24.9736C141.952 24.9736 141.264 24.7824 140.632 24.3996C140.002 24.0176 139.494 23.4725 139.108 22.7594C138.725 22.0317 138.53 21.134 138.53 20.0598C138.53 18.9851 138.725 18.0979 139.108 17.3908L139.108 17.3908L139.108 17.3893C139.494 16.6565 140.001 16.1129 140.629 15.7515L140.629 15.7516L140.632 15.7498C141.264 15.367 141.952 15.1758 142.699 15.1758C143.586 15.1758 144.35 15.3972 144.998 15.8351C145.641 16.2704 146.057 16.8738 146.247 17.6529L146.275 17.7673H146.393H149.699H149.885L149.845 17.5852C149.481 15.9245 148.658 14.6021 147.378 13.626C146.116 12.6493 144.553 12.1652 142.699 12.1652C141.226 12.1652 139.899 12.4984 138.723 13.1678L138.723 13.1678L138.722 13.1683C137.566 13.8375 136.653 14.7708 135.985 15.9653L135.985 15.9653L135.985 15.9661C135.335 17.1435 135.013 18.5096 135.013 20.0598C135.013 21.6102 135.335 22.9858 135.984 24.1824L135.984 24.1824L135.986 24.1851C136.654 25.3596 137.566 26.2825 138.722 26.9513Z" fill="#2F343A" stroke="#2F343A" stroke-width="0.3"/>
<path d="M138.722 26.9513L138.723 26.9519C139.899 27.6212 141.226 27.9545 142.699 27.9545C144.554 27.9545 146.127 27.4599 147.408 26.4633C148.688 25.468 149.501 24.1559 149.846 22.5336L149.884 22.3524H149.699H146.393H146.274L146.247 22.4676C146.056 23.2672 145.64 23.8798 144.998 24.3143C144.35 24.7523 143.586 24.9736 142.699 24.9736C141.952 24.9736 141.264 24.7824 140.632 24.3996C140.002 24.0176 139.494 23.4725 139.108 22.7594C138.725 22.0317 138.53 21.134 138.53 20.0598C138.53 18.9851 138.725 18.0979 139.108 17.3908L139.108 17.3908L139.108 17.3893C139.494 16.6565 140.001 16.1129 140.629 15.7515L140.629 15.7516L140.632 15.7498C141.264 15.367 141.952 15.1758 142.699 15.1758C143.586 15.1758 144.35 15.3972 144.998 15.8351C145.641 16.2704 146.057 16.8738 146.247 17.6529L146.275 17.7673H146.393H149.699H149.885L149.845 17.5852C149.481 15.9245 148.658 14.6021 147.378 13.626C146.116 12.6493 144.553 12.1652 142.699 12.1652C141.226 12.1652 139.899 12.4984 138.723 13.1678L138.723 13.1678L138.722 13.1683C137.566 13.8375 136.653 14.7708 135.985 15.9653L135.985 15.9653L135.985 15.9661C135.335 17.1435 135.013 18.5096 135.013 20.0598C135.013 21.6102 135.335 22.9858 135.984 24.1824L135.984 24.1824L135.986 24.1851C136.654 25.3596 137.566 26.2825 138.722 26.9513Z" fill="#2F343A" stroke="#2F343A" stroke-width="0.3"/>
<path d="M152.079 27.4467V27.5967H152.229H155.386H155.536V27.4467V20.2916L161.646 27.5433L161.691 27.5967H161.761H165.752H166.087L165.864 27.3468L158.747 19.3769L164.938 12.7749L165.175 12.5223H164.829H161.046H160.98L160.936 12.5703L155.536 18.3962V6V5.85H155.386H152.229H152.079V6V27.4467Z" fill="#2F343A" stroke="#2F343A" stroke-width="0.3"/>
<path d="M152.079 27.4467V27.5967H152.229H155.386H155.536V27.4467V20.2916L161.646 27.5433L161.691 27.5967H161.761H165.752H166.087L165.864 27.3468L158.747 19.3769L164.938 12.7749L165.175 12.5223H164.829H161.046H160.98L160.936 12.5703L155.536 18.3962V6V5.85H155.386H152.229H152.079V6V27.4467Z" fill="#2F343A" stroke="#2F343A" stroke-width="0.3"/>
<defs>
<linearGradient id="paint0_linear_211_45" x1="36" y1="18" x2="-7.86805e-07" y2="18" gradientUnits="userSpaceOnUse">
<stop stop-color="#D0F8EE"/>
<stop offset="1" stop-color="#25CBA1"/>
</linearGradient>
<linearGradient id="paint1_linear_211_45" x1="9.71863" y1="39.2167" x2="31.6882" y2="1.98479" gradientUnits="userSpaceOnUse">
<stop stop-color="#49D4B1"/>
<stop offset="0.779417" stop-color="#15715A"/>
</linearGradient>
</defs>
</svg>
